<?xml version="1.0" standalone="no"?>
<!DOCTYPE svg PUBLIC "-//W3C//DTD SVG 20010904//EN"
 "http://www.w3.org/TR/2001/REC-SVG-20010904/DTD/svg10.dtd">
<svg version="1.0" xmlns="http://www.w3.org/2000/svg"
 width="1643.000000pt" height="1643.000000pt" viewBox="0 0 1643.000000 1643.000000"
 preserveAspectRatio="xMidYMid meet">
<metadata>
Created by potrace 1.11, written by Peter Selinger 2001-2013
</metadata>
<g transform="translate(0.000000,1643.000000) scale(0.100000,-0.100000)"
fill="#000000" stroke="none">
<path d="M0 8215 l0 -8215 8215 0 8215 0 0 8215 0 8215 -8215 0 -8215 0 0
-8215z m8790 7405 l0 -570 -567 2 -568 3 -3 568 -2 567 570 0 570 0 0 -570z
m0 -1330 l0 -570 -567 2 -568 3 -3 568 -2 567 570 0 570 0 0 -570z m0 -1330
l0 -570 -567 2 -568 3 -3 568 -2 567 570 0 570 0 0 -570z m0 -1330 l0 -570
-567 2 -568 3 -3 568 -2 567 570 0 570 0 0 -570z m0 -1330 l0 -570 -567 2
-568 3 -3 568 -2 567 570 0 570 0 0 -570z m-1330 -1330 l0 -570 -570 0 -570 0
0 570 0 570 570 0 570 0 0 -570z m1330 0 l0 -570 -567 2 -568 3 -3 568 -2 567
570 0 570 0 0 -570z m1300 0 l0 -570 -565 0 -565 0 0 570 0 570 565 0 565 0 0
-570z m-2630 -1330 l0 -570 -567 2 -568 3 -3 568 -2 567 570 0 570 0 0 -570z
m1330 0 l0 -570 -567 2 -568 3 -3 568 -2 567 570 0 570 0 0 -570z m1340 -10
l0 -570 -570 0 -570 0 0 570 0 570 570 0 570 0 0 -570z m-4000 -1320 l0 -570
-570 0 -570 0 0 570 0 570 570 0 570 0 0 -570z m1330 0 l0 -570 -567 2 -568 3
-3 568 -2 567 570 0 570 0 0 -570z m1330 0 l0 -570 -567 2 -568 3 -3 568 -2
567 570 0 570 0 0 -570z m1340 -10 l0 -570 -570 0 -570 0 0 570 0 570 570 0
570 0 0 -570z m1330 0 l0 -570 -570 0 -570 0 0 563 c0 310 3 567 7 570 3 4
260 7 570 7 l563 0 0 -570z m-5330 -1320 l0 -570 -570 0 -570 0 0 570 0 570
570 0 570 0 0 -570z m1330 0 l0 -570 -567 2 -568 3 -3 568 -2 567 570 0 570 0
0 -570z m1330 0 l0 -570 -567 2 -568 3 -3 568 -2 567 570 0 570 0 0 -570z
m1340 -10 l0 -570 -570 0 -570 0 0 570 0 570 570 0 570 0 0 -570z m1330 0 l0
-570 -570 0 -570 0 0 563 c0 310 3 567 7 570 3 4 260 7 570 7 l563 0 0 -570z
m-2670 -1320 l0 -570 -570 0 -570 0 0 570 0 570 570 0 570 0 0 -570z m-3992
-12 l2 -568 -570 0 -570 0 0 570 0 570 568 -2 567 -3 3 -567z m1332 2 l0 -570
-570 0 -570 0 0 570 0 570 570 0 570 0 0 -570z m1330 0 l0 -570 -570 0 -570 0
0 563 c0 310 3 567 7 570 3 4 260 7 570 7 l563 0 0 -570z m2670 0 l0 -570
-570 0 -570 0 0 570 0 570 570 0 570 0 0 -570z m1330 0 l0 -570 -570 0 -570 0
0 563 c0 310 3 567 7 570 3 4 260 7 570 7 l563 0 0 -570z m1310 0 l0 -570
-570 0 -570 0 0 563 c0 310 3 567 7 570 3 4 260 7 570 7 l563 0 0 -570z
m-7972 -1332 l2 -568 -570 0 -570 0 0 570 0 570 568 -2 567 -3 3 -567z m1332
2 l0 -570 -570 0 -570 0 0 570 0 570 570 0 570 0 0 -570z m1330 0 l0 -570
-570 0 -570 0 0 563 c0 310 3 567 7 570 3 4 260 7 570 7 l563 0 0 -570z m1330
0 l0 -570 -570 0 -570 0 0 563 c0 310 3 567 7 570 3 4 260 7 570 7 l563 0 0
-570z m1340 0 l0 -570 -570 0 -570 0 0 570 0 570 570 0 570 0 0 -570z m1330 0
l0 -570 -570 0 -570 0 0 563 c0 310 3 567 7 570 3 4 260 7 570 7 l563 0 0
-570z m1310 0 l0 -570 -570 0 -570 0 0 570 0 570 570 0 570 0 0 -570z m-7972
-1332 l2 -568 -570 0 -570 0 0 570 0 570 568 -2 567 -3 3 -567z m1332 2 l0
-570 -570 0 -570 0 0 570 0 570 570 0 570 0 0 -570z m1330 0 l0 -570 -570 0
-570 0 0 563 c0 310 3 567 7 570 3 4 260 7 570 7 l563 0 0 -570z m1330 0 l0
-570 -570 0 -570 0 0 563 c0 310 3 567 7 570 3 4 260 7 570 7 l563 0 0 -570z
m1340 0 l0 -570 -570 0 -570 0 0 570 0 570 570 0 570 0 0 -570z m1330 0 l0
-570 -570 0 -570 0 0 563 c0 310 3 567 7 570 3 4 260 7 570 7 l563 0 0 -570z
m1310 0 l0 -570 -570 0 -570 0 0 563 c0 310 3 567 7 570 3 4 260 7 570 7 l563
0 0 -570z"/>
</g>
</svg>
