<svg id="Layer_1" data-name="Layer 1" xmlns="http://www.w3.org/2000/svg" viewBox="0 0 136.8 33.12"><title>about</title><rect x="25.92" width="7.2" height="7.2"/><rect x="34.56" width="7.2" height="7.2"/><rect x="69.12" width="7.2" height="7.2"/><rect x="77.76" width="7.2" height="7.2"/><rect x="86.4" width="7.2" height="7.2"/><rect x="95.04" width="7.2" height="7.2"/><rect x="120.96" width="7.2" height="7.2"/><rect x="17.28" y="8.64" width="7.2" height="7.2"/><rect x="25.92" y="8.64" width="7.2" height="7.2"/><rect x="103.68" y="8.64" width="7.2" height="7.2"/><rect x="112.32" y="8.64" width="7.2" height="7.2"/><rect x="120.96" y="8.64" width="7.2" height="7.2"/><rect x="8.64" y="17.28" width="7.2" height="7.2"/><rect x="34.56" y="17.28" width="7.2" height="7.2"/><rect x="43.2" y="17.28" width="7.2" height="7.2"/><rect x="86.4" y="17.28" width="7.2" height="7.2"/><rect x="95.04" y="17.28" width="7.2" height="7.2"/><rect x="112.32" y="17.28" width="7.2" height="7.2"/><rect y="25.92" width="7.2" height="7.2"/><rect x="8.64" y="25.92" width="7.2" height="7.2"/><rect x="17.28" y="25.92" width="7.2" height="7.2"/><rect x="43.2" y="25.92" width="7.2" height="7.2"/><rect x="51.84" y="25.92" width="7.2" height="7.2"/><rect x="86.4" y="25.92" width="7.2" height="7.2"/><rect x="95.04" y="25.92" width="7.2" height="7.2"/><rect x="112.32" y="25.92" width="7.2" height="7.2"/><rect x="120.96" y="25.92" width="7.2" height="7.2"/><rect x="129.6" y="25.92" width="7.2" height="7.2"/></svg>