<svg id="Layer_1" data-name="Layer 1" xmlns="http://www.w3.org/2000/svg" viewBox="0 0 105.36 35.26"><title>austria</title><path d="M12.57,10.61c-.36,0-.88,0-1.55.1V24.43a16.36,16.36,0,0,0,1.77.09,4.75,4.75,0,0,0,4-2,9.14,9.14,0,0,0,1.45-5.49Q18.27,10.61,12.57,10.61Z"/><polygon points="53.96 20.88 58.55 20.88 56.26 13.45 53.96 20.88"/><path d="M105.36,0H0V35.25H105.36L83.42,17.62ZM11.87,27.69H7.63V7.59q4.05-.15,5.1-.15A8.74,8.74,0,0,1,19.35,10a9.52,9.52,0,0,1,2.44,6.83Q21.79,27.69,11.87,27.69ZM37,10.75h-8.8v4.71h6.31v3H28.18v6h8.66v3.17H24.79V7.58H37Zm9.37,10.4h-6.9V17.93h6.9Zm14.59,6.54-1.4-4.08H53l-1.33,4.08H47.9L55.52,7.3H57l7.68,20.39ZM78.3,10.75H72V27.69H68.56V10.75H62.48V7.58H78.3Z"/></svg>