<svg id="Layer_1" data-name="Layer 1" xmlns="http://www.w3.org/2000/svg" viewBox="0 0 356.88 621.36"><defs><style>.cls-1{fill:#fff;}</style></defs><title>austria-logo</title><path class="cls-1" d="M161.29,122.6h24v-6.76H184c-5,0-10.08,0-15.11,0a7,7,0,0,1-2.23-.35,2.55,2.55,0,0,1-1.7-2.84c.14-1.1.85-1.65,2.33-1.8l.71,0,16-.08c.46,0,.92,0,1.35,0v-6.8h-1.41c-5.12,0-10.24,0-15.35,0a5.6,5.6,0,0,1-2.19-.44,2.55,2.55,0,0,1-1.37-2.82c.19-1.18,1.06-1.5,2.07-1.62a15.23,15.23,0,0,1,1.79-.13H184c.42,0,.84,0,1.27-.06V92.13H167.16c-4.72,0-7.32,3.32-6.3,8a6.86,6.86,0,0,0,3.34,4.24,6,6,0,0,0-3.48,5.49,6.35,6.35,0,0,0,2.8,6,5,5,0,0,0-1.44.13c-.31.13-.74.49-.75.77C161.26,118.71,161.29,120.7,161.29,122.6Zm.05,388.76h14.71a27.5,27.5,0,0,1,2.87.07,2.73,2.73,0,0,1,2.75,2.86c-.06,1.36-.85,2-2.85,2-5.35.06-10.71.06-16.06.09h-1.37v6.76c6.33,0,12.56.05,18.79,0a5.31,5.31,0,0,0,4.93-2.86,6.84,6.84,0,0,0-1.69-8.55,1.93,1.93,0,0,1-.23-.4,7.23,7.23,0,0,0,1.41-.14c.26-.09.63-.41.64-.63,0-2,0-4.06,0-6H161.34Zm0-177.21h1.36c5.16,0,10.31,0,15.47,0a5.1,5.1,0,0,1,2.27.55,2.39,2.39,0,0,1,1.13,2.79c-.22,1.12-1.12,1.36-2.06,1.48a17.43,17.43,0,0,1-2,.11H162.64c-.43,0-.85,0-1.25.06v6.72c6.38,0,12.65.08,18.92,0a5.16,5.16,0,0,0,5.26-4.1c.73-2.94.28-5.56-2.5-7.6l2.11-.34v-6.55H161.37Zm23.93,59.78H167c-2.29,0-4.35.58-5.44,2.79a7.09,7.09,0,0,0,.23,7.3,13.21,13.21,0,0,0,1.55,1.72l-2,.28v6.56h23.9v-6.86h-1.39c-5.15,0-10.3,0-15.46,0a5.28,5.28,0,0,1-2.18-.47,2.4,2.4,0,0,1-1.29-2.71c.15-1.17,1-1.55,2-1.67a17.18,17.18,0,0,1,2-.16h15c.42,0,.84,0,1.32-.05ZM161.36,283.57h1.38c5,0,10.06,0,15.1,0a6.7,6.7,0,0,1,2.42.49,2.49,2.49,0,0,1,1.38,2.79c-.19,1.12-1,1.46-2,1.58a17.16,17.16,0,0,1-2.26.15c-4.92,0-9.83,0-14.74,0h-1.27v6.75h3.91c4.84,0,9.67,0,14.5,0,3.62,0,5.72-2,6-5.61a6.14,6.14,0,0,0-2.83-6.1l2.2-.36v-6.51H161.36Zm0-137.35c3.38,0,6.62,0,9.85,0s6.31,0,9.46-.12a4.93,4.93,0,0,0,4.67-3.36c.95-2.56.87-6.12-2-8.07-.06,0-.07-.17-.1-.26l2-.3v-6.53H161.36v6.81h1.37c5.08,0,10.15,0,15.22,0a5.89,5.89,0,0,1,2.31.47,2.43,2.43,0,0,1,1.39,2.67c-.1,1.19-1,1.57-2,1.73a9,9,0,0,1-1.55.1H161.36Zm13.32,20.06c-3.63,0-6.46.07-9.16,1.15a6.48,6.48,0,0,0-4.28,4.8,20.68,20.68,0,0,0-.37,5.92c.45,4.6,2.51,6.79,7.07,7.63a28.41,28.41,0,0,0,12.24-.36,6.75,6.75,0,0,0,5.41-6.13,25,25,0,0,0,0-5.6c-.4-3.88-2.24-5.9-6-6.73C177.73,166.56,175.8,166.43,174.68,166.28Zm10.67,250.38c-2.17.1-4.24.26-6.31.29-3.84,0-7.68,0-11.51,0s-6.05,1.86-6.51,5.52a29.1,29.1,0,0,0,0,6.79,9.7,9.7,0,0,0,1.52,3.84,4.63,4.63,0,0,0,4.95,2v-6a11,11,0,0,1-1.72-.45,2.77,2.77,0,0,1-1.55-2.86,2,2,0,0,1,1.48-2.2c1.29-.29,2.62-.35,4.09-.54a13.8,13.8,0,0,0,0,1.74,49.74,49.74,0,0,0,1,6.24,6.16,6.16,0,0,0,5.65,4.8,13.56,13.56,0,0,0,3.92-.18c3.56-.69,5.42-3.34,5.1-7A8.75,8.75,0,0,0,182.8,423a13.22,13.22,0,0,0,1.89-.4c.27-.09.63-.43.63-.66C185.37,420.17,185.35,418.38,185.35,416.66ZM169.73,244.39c0,.7,0,1.17.08,1.64a51,51,0,0,0,.78,5.68c.67,2.78,2.32,4.92,5.34,5.28a16,16,0,0,0,5.3-.3,5.19,5.19,0,0,0,4.06-4.14,8.36,8.36,0,0,0-1.82-7.51l-.62-.75a13.75,13.75,0,0,0,1.77-.36c.28-.09.69-.39.69-.61.06-1.82,0-3.64,0-5.39-2.09.11-4,.26-6,.29-4,0-7.9,0-11.86,0-3.63,0-5.68,1.68-6.44,5.19a17.27,17.27,0,0,0,.21,8.3,8.8,8.8,0,0,0,1.35,2.77,5,5,0,0,0,4.89,2v-6.16c-.41-.06-.73-.08-1-.15a2.73,2.73,0,0,1-2.23-3.08c0-1.46.61-2.17,2.25-2.44C167.51,244.49,168.55,244.48,169.73,244.39Zm15.56,282.75c-1.92.13-3.78.34-5.64.36-4.11,0-8.23,0-12.34,0-2.56,0-4.72.89-5.67,3.42a15.23,15.23,0,0,0,.26,11.67,4.94,4.94,0,0,0,5.66,3v-6l-.73-.14a2.86,2.86,0,0,1-2.58-3.41c.09-1.41,1-2.15,2.85-2.28.86-.06,1.72,0,2.59,0,.13,1.65.21,3.17.37,4.67.6,5.62,3.38,8.2,8.58,8s7.88-3.84,6.56-8.68a27.21,27.21,0,0,0-2-4.29l2.09-.52Zm-7.87-26.7c4.14.6,7.25-1.56,8-5.52a16.48,16.48,0,0,0-.49-8c-.76-2.45-2.24-4.2-4.91-4.68a6.24,6.24,0,0,0-6.8,2.66c-1.27,1.88-2.33,3.9-3.52,5.84a20.85,20.85,0,0,1-1.88,2.75,1.79,1.79,0,0,1-2.59.23,2.38,2.38,0,0,1-.85-2.58,2,2,0,0,1,1.77-1.7c.55-.09,1.1-.12,1.71-.19v-6.16c-2.79-.37-5.11.67-6.12,3a12.79,12.79,0,0,0,.12,11c2,4.08,8.14,4.8,10.57.55,1-1.73,1.91-3.5,2.91-5.22a22.93,22.93,0,0,1,2-3,2.29,2.29,0,0,1,2.91-.68,2.67,2.67,0,0,1,1.45,2.8,2.25,2.25,0,0,1-2,2.11,22.08,22.08,0,0,1-2.28.39Zm-1-144.57a31.85,31.85,0,0,1,3.3.68,2.51,2.51,0,0,1,1.84,2.63,2.29,2.29,0,0,1-1.94,2.39,18.31,18.31,0,0,1-4,.58,80,80,0,0,1-8.34-.42,2.35,2.35,0,0,1-2.32-2.57,2.74,2.74,0,0,1,2.39-2.86c.76-.17,1.55-.23,2.36-.34v-6.55a7.72,7.72,0,0,0-8.09,4.58,13.41,13.41,0,0,0-.82,7.17c.62,4.49,2.76,6.79,7.24,7.52a31.6,31.6,0,0,0,11.43-.21c3.28-.68,5.56-2.57,6-6a23.11,23.11,0,0,0,0-6.54,7.74,7.74,0,0,0-9.07-6.48Zm8.82-156.75v-6.74h-20v-4.2h-4v4.19c-1.33,0-2.49.07-3.64,0-1.63-.12-2.26-.8-2.39-2.43-.05-.55,0-1.11,0-1.79-1.47,0-2.82,0-4.17,0-.22,0-.59.48-.61.76a35.79,35.79,0,0,0-.06,3.59c.13,5.16,1.59,6.58,6.76,6.6h4.19v3.3h4v-3.3Zm-24,267.45v4.21h-7c1,2.23,1.87,4.27,2.81,6.28.1.21.58.33.89.34,1.06,0,2.13,0,3.35,0v3h4.13v-3h1.39c4.32,0,8.63,0,12.95,0,2.22,0,4.27-.58,5.2-2.88,1.07-2.63.46-5.3.15-7.95h-3.95c0,.51,0,.94.07,1.37.08,2.23-.45,2.79-2.66,2.8H165.4v-4.17Zm4.2-167.74h-4.21v4.24H154.3c1,2.23,1.87,4.27,2.81,6.28.1.21.58.34.89.35,1.06.05,2.13,0,3.34,0v3h4.14v-3h1.39c4,0,8.07,0,12.11,0a13.89,13.89,0,0,0,2.73-.27,4.34,4.34,0,0,0,3.49-3.1c.75-2.53.26-5-.06-7.61H181.2c0,.51,0,.83.06,1.14.17,2.59-.34,3.16-2.9,3.17h-12.9Zm19.8,23.57v-6.61H150.94v6.61Zm-34.37-89.09h34.4v-6.54h-34.4Zm34.4,222.32h-1.58c-4.11,0-8.23,0-12.34-.06-3.21-.08-4.65-1.63-4.73-4.79,0-.3,0-.61-.08-.92h-5.78c-.22,2.66.53,4.17,3.12,6.22l-2.6.46v5.78h24Zm0-190.65h-3c-3.83,0-7.67,0-11.5-.14-2.61-.11-3.93-1.64-4.1-4.25,0-.47-.09-.94-.13-1.41h-5.81c-.06,2.68.76,4.83,3.34,6.24l-2.74.46v5.82h24ZM160.71,149.4c-.06,2.67.72,4.83,3.4,6.27a17.33,17.33,0,0,0-2.1.33c-.3.09-.75.42-.76.65-.06,1.75,0,3.49,0,5.22h24.07v-6.65h-1.36c-3.87,0-7.75,0-11.63,0a11,11,0,0,1-2.14-.2,4,4,0,0,1-3.51-4c0-.51-.1-1-.15-1.56ZM161.37,440v6.59h23.92V440Zm-12-350.59h11.92V86.09h-7.85c-.4,0-.9.08-1.16-.13a2.26,2.26,0,0,1-.89-1.32c0-.28.67-.87,1.08-.89,1.74-.13,3.5-.11,5.26-.13,1.18,0,2.37,0,3.58,0V80.34c-3.32,0-6.59-.13-9.84,0-2.06.12-3,2.92-1.82,4.81a8.25,8.25,0,0,0,.55.71C148.74,86.92,149.77,88.31,149.36,89.43Zm.09-10.52c3.81-1.08,7.49-2.15,11.18-3.15a4.13,4.13,0,0,1,1.85,0c1.07.24,2.11.61,3.29,1,0-.88-.06-1.6,0-2.3.1-.89-.25-1.25-1.09-1.49-2.61-.73-5.2-1.56-7.79-2.34l-7.43-2.21v3.27l7.9,2v.18l-7.91,1.7Zm4.19-21a3.68,3.68,0,0,0-4.21,2.83c-.7,2.83-.23,5.88,2.93,6.56a13.75,13.75,0,0,0,6.41-.12c2-.52,2.81-1.88,2.84-4.42s-.91-4.11-2.76-4.67a14.59,14.59,0,0,0-1.87-.31V61a6.1,6.1,0,0,1,1.68.46,1.77,1.77,0,0,1,.77,1.21,1.38,1.38,0,0,1-.78,1,12.22,12.22,0,0,1-6.49,0,1.48,1.48,0,0,1-.79-1.14,1.74,1.74,0,0,1,.74-1.2,5,5,0,0,1,1.53-.41Zm2.87,388.78V440H151v6.64Zm13.61,112.19c-1.13-.67-39.87-.63-40.75,0Zm-.26-177.34c.07.23.07.34.12.37a1.14,1.14,0,0,0,.44.14h39.32c.13,0,.26-.13.39-.21s0-.07,0-.11a1.23,1.23,0,0,0,0-.18ZM210.14,76.15H169.78C170.58,76.78,209.19,76.85,210.14,76.15ZM169.7,214.41c-1.34-.69-39.59-.54-40.24,0Z"/><path d="M161.29,122.6c0-1.9,0-3.89,0-5.88,0-.28.44-.64.75-.77a5,5,0,0,1,1.44-.13,6.35,6.35,0,0,1-2.8-6,6,6,0,0,1,3.48-5.49,6.86,6.86,0,0,1-3.34-4.24c-1-4.64,1.58-8,6.3-8h18.13v6.69c-.43,0-.85.06-1.27.06H168.79A15.23,15.23,0,0,0,167,99c-1,.12-1.88.44-2.07,1.62a2.55,2.55,0,0,0,1.37,2.82,5.6,5.6,0,0,0,2.19.44c5.11,0,10.23,0,15.35,0h1.41v6.8c-.43,0-.89,0-1.35,0l-16,.08-.71,0c-1.48.15-2.19.7-2.33,1.8a2.55,2.55,0,0,0,1.7,2.84,7,7,0,0,0,2.23.35c5,0,10.07,0,15.11,0h1.34v6.76Z"/><path d="M161.34,511.36v-6.81h23.93c0,1.94,0,4,0,6,0,.22-.38.54-.64.63a7.23,7.23,0,0,1-1.41.14,1.93,1.93,0,0,0,.23.4,6.84,6.84,0,0,1,1.69,8.55,5.31,5.31,0,0,1-4.93,2.86c-6.23.08-12.46,0-18.79,0V516.4h1.37c5.35,0,10.71,0,16.06-.09,2,0,2.79-.65,2.85-2a2.73,2.73,0,0,0-2.75-2.86,27.5,27.5,0,0,0-2.87-.07H161.34Z"/><path d="M161.37,334.15v-6.89h23.81v6.55l-2.11.34c2.78,2,3.23,4.66,2.5,7.6a5.16,5.16,0,0,1-5.26,4.1c-6.27.12-12.54,0-18.92,0v-6.72c.4,0,.82-.06,1.25-.06H177.5a17.43,17.43,0,0,0,2-.11c.94-.12,1.84-.36,2.06-1.48a2.39,2.39,0,0,0-1.13-2.79,5.1,5.1,0,0,0-2.27-.55c-5.16,0-10.31,0-15.47,0Z"/><path d="M185.3,393.93v6.7c-.48,0-.9.05-1.32.05H169a17.18,17.18,0,0,0-2,.16c-1,.12-1.88.5-2,1.67a2.4,2.4,0,0,0,1.29,2.71,5.28,5.28,0,0,0,2.18.47c5.16,0,10.31,0,15.46,0h1.39v6.86h-23.9V406l2-.28a13.21,13.21,0,0,1-1.55-1.72,7.09,7.09,0,0,1-.23-7.3c1.09-2.21,3.15-2.79,5.44-2.79H185.3Z"/><path d="M161.36,283.57v-6.79h23.85v6.51l-2.2.36a6.14,6.14,0,0,1,2.83,6.1c-.32,3.59-2.42,5.58-6,5.61-4.83,0-9.66,0-14.5,0h-3.91v-6.75h1.27c4.91,0,9.82,0,14.74,0a17.16,17.16,0,0,0,2.26-.15c1-.12,1.79-.46,2-1.58a2.49,2.49,0,0,0-1.38-2.79,6.7,6.7,0,0,0-2.42-.49c-5,0-10.07,0-15.1,0Z"/><path d="M161.36,146.22v-6.83h16.77a9,9,0,0,0,1.55-.1c1-.16,1.87-.54,2-1.73a2.43,2.43,0,0,0-1.39-2.67,5.89,5.89,0,0,0-2.31-.47c-5.07,0-10.14,0-15.22,0h-1.37v-6.81h23.82v6.53l-2,.3c0,.09,0,.22.1.26,2.9,2,3,5.51,2,8.07a4.93,4.93,0,0,1-4.67,3.36c-3.15.15-6.31.1-9.46.12S164.74,146.22,161.36,146.22Z"/><path d="M174.68,166.28c1.12.15,3,.28,4.91.68,3.81.83,5.65,2.85,6,6.73a25,25,0,0,1,0,5.6,6.75,6.75,0,0,1-5.41,6.13,28.41,28.41,0,0,1-12.24.36c-4.56-.84-6.62-3-7.07-7.63a20.68,20.68,0,0,1,.37-5.92,6.48,6.48,0,0,1,4.28-4.8C168.22,166.35,171.05,166.31,174.68,166.28Zm-1.58,13.19c2-.18,4-.25,5.92-.56s2.65-1.31,2.58-2.87c-.07-1.3-.79-2.16-2.5-2.46a34.52,34.52,0,0,0-11.65-.06,2.55,2.55,0,0,0-2.46,2.74c0,1.49.73,2.41,2.49,2.68S171.2,179.3,173.1,179.47Z"/><path d="M185.35,416.66c0,1.72,0,3.51,0,5.31,0,.23-.36.57-.63.66a13.22,13.22,0,0,1-1.89.4,8.75,8.75,0,0,1,2.68,5.67c.32,3.62-1.54,6.27-5.1,7a13.56,13.56,0,0,1-3.92.18,6.16,6.16,0,0,1-5.65-4.8,49.74,49.74,0,0,1-1-6.24,13.8,13.8,0,0,1,0-1.74c-1.47.19-2.8.25-4.09.54a2,2,0,0,0-1.48,2.2,2.77,2.77,0,0,0,1.55,2.86,11,11,0,0,0,1.72.45v6a4.63,4.63,0,0,1-4.95-2,9.7,9.7,0,0,1-1.52-3.84,29.1,29.1,0,0,1,0-6.79c.46-3.66,2.77-5.49,6.51-5.52s7.67,0,11.51,0C181.11,416.92,183.18,416.76,185.35,416.66Zm-12,6.34c.08,1.1.14,1.81.19,2.51.28,3.3,2.25,4.62,6,3.71a2.48,2.48,0,0,0,1.27-4.22,4.13,4.13,0,0,0-2.06-1.31C177.07,423.33,175.33,423.24,173.38,423Z"/><path d="M169.73,244.39c-1.18.09-2.22.1-3.23.27-1.64.27-2.23,1-2.25,2.44a2.73,2.73,0,0,0,2.23,3.08c.3.07.62.09,1,.15v6.16a5,5,0,0,1-4.89-2,8.8,8.8,0,0,1-1.35-2.77,17.27,17.27,0,0,1-.21-8.3c.76-3.51,2.81-5.15,6.44-5.19,4,0,7.91,0,11.86,0,1.95,0,3.9-.18,6-.29,0,1.75,0,3.57,0,5.39,0,.22-.41.52-.69.61a13.75,13.75,0,0,1-1.77.36l.62.75a8.36,8.36,0,0,1,1.82,7.51,5.19,5.19,0,0,1-4.06,4.14,16,16,0,0,1-5.3.3c-3-.36-4.67-2.5-5.34-5.28a51,51,0,0,1-.78-5.68C169.75,245.56,169.76,245.09,169.73,244.39Zm3.65-.11c.07,1,.11,1.72.17,2.42.27,3.27,2.09,4.74,6,3.78a2.45,2.45,0,0,0,1.32-4.06A4.23,4.23,0,0,0,178.8,245C177.08,244.6,175.3,244.51,173.38,244.28Z"/><path d="M185.29,527.14V533l-2.09.52a27.21,27.21,0,0,1,2,4.29c1.32,4.84-1.5,8.49-6.56,8.68s-8-2.39-8.58-8c-.16-1.5-.24-3-.37-4.67-.87,0-1.73,0-2.59,0-1.88.13-2.76.87-2.85,2.28a2.86,2.86,0,0,0,2.58,3.41l.73.14v6a4.94,4.94,0,0,1-5.66-3,15.23,15.23,0,0,1-.26-11.67c1-2.53,3.11-3.4,5.67-3.42,4.11,0,8.23,0,12.34,0C181.51,527.48,183.37,527.27,185.29,527.14Zm-11.92,6.39c.09,1.12.14,1.8.2,2.47.3,4,3.18,4.46,6,3.76a2.39,2.39,0,0,0,1.58-3.74,3.82,3.82,0,0,0-2-1.68A53,53,0,0,0,173.37,533.53Z"/><path d="M177.42,500.44v-6.39a22.08,22.08,0,0,0,2.28-.39,2.25,2.25,0,0,0,2-2.11,2.67,2.67,0,0,0-1.45-2.8,2.29,2.29,0,0,0-2.91.68,22.93,22.93,0,0,0-2,3c-1,1.72-1.92,3.49-2.91,5.22-2.43,4.25-8.6,3.53-10.57-.55a12.79,12.79,0,0,1-.12-11c1-2.35,3.33-3.39,6.12-3v6.16c-.61.07-1.16.1-1.71.19a2,2,0,0,0-1.77,1.7,2.38,2.38,0,0,0,.85,2.58,1.79,1.79,0,0,0,2.59-.23,20.85,20.85,0,0,0,1.88-2.75c1.19-1.94,2.25-4,3.52-5.84a6.24,6.24,0,0,1,6.8-2.66c2.67.48,4.15,2.23,4.91,4.68a16.48,16.48,0,0,1,.49,8C184.67,498.88,181.56,501,177.42,500.44Z"/><path d="M176.46,355.87v-6.39a7.74,7.74,0,0,1,9.07,6.48,23.11,23.11,0,0,1,0,6.54c-.46,3.4-2.74,5.29-6,6a31.6,31.6,0,0,1-11.43.21c-4.48-.73-6.62-3-7.24-7.52a13.41,13.41,0,0,1,.82-7.17,7.72,7.72,0,0,1,8.09-4.58V356c-.81.11-1.6.17-2.36.34a2.74,2.74,0,0,0-2.39,2.86,2.35,2.35,0,0,0,2.32,2.57,80,80,0,0,0,8.34.42,18.31,18.31,0,0,0,4-.58,2.29,2.29,0,0,0,1.94-2.39,2.51,2.51,0,0,0-1.84-2.63A31.85,31.85,0,0,0,176.46,355.87Z"/><path d="M185.28,199.12h-20v3.3h-4v-3.3h-4.19c-5.17,0-6.63-1.44-6.76-6.6a35.79,35.79,0,0,1,.06-3.59c0-.28.39-.75.61-.76,1.35-.07,2.7,0,4.17,0,0,.68,0,1.24,0,1.79.13,1.63.76,2.31,2.39,2.43,1.15.09,2.31,0,3.64,0v-4.19h4v4.2h20Z"/><path d="M161.26,466.57h4.14v4.17h13.22c2.21,0,2.74-.57,2.66-2.8,0-.43,0-.86-.07-1.37h3.95c.31,2.65.92,5.32-.15,7.95-.93,2.3-3,2.86-5.2,2.88-4.32.05-8.63,0-12.95,0h-1.39v3h-4.13v-3c-1.22,0-2.29,0-3.35,0-.31,0-.79-.13-.89-.34-.94-2-1.83-4.05-2.81-6.28h7Z"/><path d="M165.46,298.83V303h12.9c2.56,0,3.07-.58,2.9-3.17,0-.31,0-.63-.06-1.14h3.94c.32,2.58.81,5.08.06,7.61a4.34,4.34,0,0,1-3.49,3.1,13.89,13.89,0,0,1-2.73.27c-4,0-8.07,0-12.11,0h-1.39v3h-4.14v-3c-1.21,0-2.28,0-3.34,0-.31,0-.79-.14-.89-.35-.94-2-1.82-4.05-2.81-6.28h6.95v-4.24Z"/><path d="M185.26,322.4H150.94v-6.61h34.32Z"/><path d="M150.89,233.31v-6.54h34.4v6.54Z"/><path d="M185.29,455.63v6.69h-24v-5.78l2.6-.46c-2.59-2.05-3.34-3.56-3.12-6.22h5.78c0,.31.08.62.08.92.08,3.16,1.52,4.71,4.73,4.79,4.11.1,8.23,0,12.34.06Z"/><path d="M185.28,265v6.72h-24v-5.82l2.74-.46c-2.58-1.41-3.4-3.56-3.34-6.24h5.81c0,.47.1.94.13,1.41.17,2.61,1.49,4.14,4.1,4.25,3.83.16,7.67.11,11.5.14Z"/><path d="M160.71,149.4h5.79c.05.55.11,1,.15,1.56a4,4,0,0,0,3.51,4,11,11,0,0,0,2.14.2c3.88,0,7.76,0,11.63,0h1.36v6.65H161.22c0-1.73,0-3.47,0-5.22,0-.23.46-.56.76-.65a17.33,17.33,0,0,1,2.1-.33C161.43,154.23,160.65,152.07,160.71,149.4Z"/><path d="M161.37,440h23.92v6.59H161.37Z"/><path d="M149.36,89.43c.41-1.12-.62-2.51.83-3.52a8.25,8.25,0,0,1-.55-.71c-1.2-1.89-.24-4.69,1.82-4.81,3.25-.18,6.52,0,9.84,0v3.27c-1.21,0-2.4,0-3.58,0-1.76,0-3.52,0-5.26.13-.41,0-1.11.61-1.08.89a2.26,2.26,0,0,0,.89,1.32c.26.21.76.13,1.16.13h7.85v3.34Z"/><path d="M149.45,78.91V75.54l7.91-1.7v-.18l-7.9-2V68.39l7.43,2.21c2.59.78,5.18,1.61,7.79,2.34.84.24,1.19.6,1.09,1.49-.07.7,0,1.42,0,2.3-1.18-.35-2.22-.72-3.29-1a4.13,4.13,0,0,0-1.85,0C156.94,76.76,153.26,77.83,149.45,78.91Z"/><path d="M153.64,57.9v3.15a5,5,0,0,0-1.53.41,1.74,1.74,0,0,0-.74,1.2,1.48,1.48,0,0,0,.79,1.14,12.22,12.22,0,0,0,6.49,0,1.38,1.38,0,0,0,.78-1,1.77,1.77,0,0,0-.77-1.21A6.1,6.1,0,0,0,157,61V57.77a14.59,14.59,0,0,1,1.87.31c1.85.56,2.78,2.18,2.76,4.67s-.85,3.9-2.84,4.42a13.75,13.75,0,0,1-6.41.12c-3.16-.68-3.63-3.73-2.93-6.56A3.68,3.68,0,0,1,153.64,57.9Z"/><path d="M156.51,446.68H151V440h5.56Z"/><path d="M170.12,558.87H129.37C130.25,558.24,169,558.2,170.12,558.87Z"/><path d="M169.86,381.53h40.26a1.23,1.23,0,0,1,0,.18s0,.1,0,.11-.26.21-.39.21H170.42a1.14,1.14,0,0,1-.44-.14S169.93,381.76,169.86,381.53Z"/><path d="M210.14,76.15c-.95.7-39.56.63-40.36,0Z"/><path d="M169.7,214.41H129.46C130.11,213.87,168.36,213.72,169.7,214.41Z"/><path class="cls-1" d="M173.1,179.47c-1.9-.17-3.78-.24-5.62-.53s-2.49-1.19-2.49-2.68a2.55,2.55,0,0,1,2.46-2.74,34.52,34.52,0,0,1,11.65.06c1.71.3,2.43,1.16,2.5,2.46.07,1.56-.72,2.58-2.58,2.87S175.07,179.29,173.1,179.47Z"/><path class="cls-1" d="M173.38,423c2,.24,3.69.33,5.37.69a4.13,4.13,0,0,1,2.06,1.31,2.48,2.48,0,0,1-1.27,4.22c-3.72.91-5.69-.41-6-3.71C173.52,424.81,173.46,424.1,173.38,423Z"/><path class="cls-1" d="M173.38,244.28c1.92.23,3.7.32,5.42.7a4.23,4.23,0,0,1,2.11,1.44,2.45,2.45,0,0,1-1.32,4.06c-4,1-5.77-.51-6-3.78C173.49,246,173.45,245.29,173.38,244.28Z"/><path class="cls-1" d="M173.37,533.53a53,53,0,0,1,5.71.81,3.82,3.82,0,0,1,2,1.68,2.39,2.39,0,0,1-1.58,3.74c-2.78.7-5.66.23-6-3.76C173.51,535.33,173.46,534.65,173.37,533.53Z"/></svg>