<svg id="binary-timer-mobile-svg" data-name="binary-timer-mobile-svg" xmlns="http://www.w3.org/2000/svg" viewBox="0 0 157.04 30.05">
  <g class="binary-timer-blocks">
    <rect class="binary-timer-block-0" width="14.17" height="14.17"/>
    <rect class="binary-timer-block-1" x="15.87" width="14.17" height="14.17"/>
    <rect class="binary-timer-block-2" x="31.75" width="14.17" height="14.17"/>
    <rect class="binary-timer-block-3" x="47.62" width="14.17" height="14.17"/>
    <rect class="binary-timer-block-4" x="63.5" width="14.17" height="14.17"/>
    <rect class="binary-timer-block-5" x="79.37" width="14.17" height="14.17"/>
    <rect class="binary-timer-block-6" x="95.24" width="14.17" height="14.17"/>
    <rect class="binary-timer-block-7" x="111.12" width="14.17" height="14.17"/>
    <rect class="binary-timer-block-8" x="126.99" width="14.17" height="14.17"/>
    <rect class="binary-timer-block-9" x="142.87" width="14.17" height="14.17"/>
    <rect class="binary-timer-block-10" y="15.87" width="14.17" height="14.17"/>
    <rect class="binary-timer-block-11" x="15.87" y="15.87" width="14.17" height="14.17"/>
    <rect class="binary-timer-block-12" x="31.75" y="15.87" width="14.17" height="14.17"/>
    <rect class="binary-timer-block-13" x="47.62" y="15.87" width="14.17" height="14.17"/>
    <rect class="binary-timer-block-14" x="63.5" y="15.87" width="14.17" height="14.17"/>
    <rect class="binary-timer-block-15" x="79.37" y="15.87" width="14.17" height="14.17"/>
    <rect class="binary-timer-block-16" x="95.24" y="15.87" width="14.17" height="14.17"/>
    <rect class="binary-timer-block-17" x="111.12" y="15.87" width="14.17" height="14.17"/>
    <rect class="binary-timer-block-18" x="126.99" y="15.87" width="14.17" height="14.17"/>
    <rect class="binary-timer-block-19" x="142.87" y="15.87" width="14.17" height="14.17"/>
  </g>
</svg>
