<svg id="Layer_1" data-name="Layer 1" xmlns="http://www.w3.org/2000/svg" viewBox="0 0 81 29.98"><g id="t_21"><rect x="3.4" width="2.83" height="2.83"/><rect x="6.8" width="2.83" height="2.83"/><rect y="3.4" width="2.83" height="2.83"/><rect x="3.4" y="3.4" width="2.83" height="2.83"/></g><g id="t_20"><rect x="30.59" y="16.94" width="2.83" height="2.83"/><rect x="33.98" y="16.94" width="2.83" height="2.83"/><rect x="27.19" y="20.34" width="2.83" height="2.83"/><rect x="30.59" y="20.34" width="2.83" height="2.83"/></g><g id="t_19"><rect x="13.59" width="2.83" height="2.83"/><rect x="16.99" width="2.83" height="2.83"/><rect x="13.59" y="3.4" width="2.83" height="2.83"/><rect x="13.59" y="6.8" width="2.83" height="2.83"/></g><g id="t_18"><rect x="57.77" y="3.4" width="2.83" height="2.83"/><rect x="61.17" y="6.8" width="2.83" height="2.83"/><rect x="57.77" y="6.8" width="2.83" height="2.83"/><rect x="61.17" y="10.2" width="2.83" height="2.83"/></g><g id="t_17"><rect x="71.37" width="2.83" height="2.83"/><rect x="74.76" width="2.83" height="2.83"/><rect x="71.37" y="3.4" width="2.83" height="2.83"/><rect x="71.37" y="6.8" width="2.83" height="2.83"/></g><g id="t_16"><rect x="40.78" y="16.94" width="2.83" height="2.83"/><rect x="44.18" y="16.94" width="2.83" height="2.83"/><rect x="40.78" y="20.34" width="2.83" height="2.83"/><rect x="40.78" y="23.74" width="2.83" height="2.83"/></g><g id="t_15"><rect x="54.37" y="16.94" width="2.83" height="2.83"/><rect x="57.77" y="16.94" width="2.83" height="2.83"/><rect x="54.37" y="20.34" width="2.83" height="2.83"/><rect x="54.37" y="23.74" width="2.83" height="2.83"/></g><g id="t_14"><rect y="6.8" width="2.83" height="2.83"/><rect x="3.4" y="6.8" width="2.83" height="2.83"/><rect x="3.4" y="10.2" width="2.83" height="2.83"/><rect x="6.8" y="10.2" width="2.83" height="2.83"/></g><g id="t_14-2" data-name="t_14"><rect x="20.39" y="3.4" width="2.83" height="2.83"/><rect x="20.39" y="6.8" width="2.83" height="2.83"/><rect x="16.99" y="10.2" width="2.83" height="2.83"/><rect x="20.39" y="10.2" width="2.83" height="2.83"/></g><g id="t_13"><rect x="30.59" y="3.4" width="2.83" height="2.83"/><rect x="27.19" y="6.8" width="2.83" height="2.83"/><rect x="30.59" y="6.8" width="2.83" height="2.83"/><rect x="27.19" y="10.2" width="2.83" height="2.83"/></g><g id="t_12"><rect x="33.98" width="2.83" height="2.83"/><rect x="33.98" y="3.4" width="2.83" height="2.83"/><rect x="33.98" y="6.8" width="2.83" height="2.83"/><rect x="33.98" y="10.2" width="2.83" height="2.83"/></g><g id="t_11"><rect x="37.38" y="3.4" width="2.83" height="2.83"/><rect x="37.38" y="6.8" width="2.83" height="2.83"/><rect x="40.78" y="6.8" width="2.83" height="2.83"/><rect x="40.78" y="10.2" width="2.83" height="2.83"/></g><g id="t_10"><rect x="47.58" width="2.83" height="2.83"/><rect x="47.58" y="3.4" width="2.83" height="2.83"/><rect x="47.58" y="6.8" width="2.83" height="2.83"/><rect x="47.58" y="10.2" width="2.83" height="2.83"/></g><g id="t_9"><rect x="54.37" width="2.83" height="2.83"/><rect x="54.37" y="3.4" width="2.83" height="2.83"/><rect x="54.37" y="6.8" width="2.83" height="2.83"/><rect x="54.37" y="10.2" width="2.83" height="2.83"/></g><g id="t_8"><rect x="64.57" width="2.83" height="2.83"/><rect x="64.57" y="3.4" width="2.83" height="2.83"/><rect x="64.57" y="6.8" width="2.83" height="2.83"/><rect x="64.57" y="10.2" width="2.83" height="2.83"/></g><g id="t_7"><rect x="74.76" y="6.8" width="2.83" height="2.83"/><rect x="78.16" y="6.8" width="2.83" height="2.83"/><rect x="74.76" y="10.2" width="2.83" height="2.83"/><rect x="78.16" y="10.2" width="2.83" height="2.83"/></g><g id="t_6"><rect x="33.98" y="23.74" width="2.83" height="2.83"/><rect x="27.19" y="27.14" width="2.83" height="2.83"/><rect x="30.59" y="27.14" width="2.83" height="2.83"/><rect x="33.98" y="27.14" width="2.83" height="2.83"/></g><g id="t_5"><rect x="47.58" y="20.34" width="2.83" height="2.83"/><rect x="47.58" y="23.74" width="2.83" height="2.83"/><rect x="44.18" y="27.14" width="2.83" height="2.83"/><rect x="47.58" y="27.14" width="2.83" height="2.83"/></g><g id="t_4"><rect x="61.17" y="20.34" width="2.83" height="2.83"/><rect x="61.17" y="23.74" width="2.83" height="2.83"/><rect x="57.77" y="27.14" width="2.83" height="2.83"/><rect x="61.17" y="27.14" width="2.83" height="2.83"/></g><g id="t_3"><rect x="67.97" y="16.94" width="2.83" height="2.83"/><rect x="67.97" y="20.34" width="2.83" height="2.83"/><rect x="67.97" y="23.74" width="2.83" height="2.83"/><rect x="67.97" y="27.14" width="2.83" height="2.83"/></g><g id="t_2"><rect x="71.37" y="20.34" width="2.83" height="2.83"/><rect x="71.37" y="23.74" width="2.83" height="2.83"/><rect x="74.76" y="23.74" width="2.83" height="2.83"/><rect x="74.76" y="27.14" width="2.83" height="2.83"/></g><g id="t_1"><rect x="78.16" y="16.94" width="2.83" height="2.83"/><rect x="78.16" y="20.34" width="2.83" height="2.83"/><rect x="78.16" y="23.74" width="2.83" height="2.83"/><rect x="78.16" y="27.14" width="2.83" height="2.83"/></g></svg>
