<svg id="Layer_1" data-name="Layer 1" xmlns="http://www.w3.org/2000/svg" viewBox="0 0 105.36 35.26"><title>usa</title><path d="M105.36,0H0V35.25H105.36L83.42,17.62ZM19.82,10.75H11v4.71h6.31v3H11v6h8.66v3.17h-12V7.58H19.82ZM36.74,28H35.35L26.08,15.24V27.7H22.82V7.58h1.63l9,12.13V7.58h3.26ZM47,21.15h-6.9V17.93H47Zm17.63.26a6.18,6.18,0,0,1-2,4.86A7.67,7.67,0,0,1,57.39,28a7.15,7.15,0,0,1-5.13-1.72,6.46,6.46,0,0,1-1.81-4.91V7.58h3.4V21.21a3.72,3.72,0,0,0,.93,2.63,3.35,3.35,0,0,0,2.59,1,3.91,3.91,0,0,0,2.86-1,3.62,3.62,0,0,0,1-2.72V7.58h3.39Zm12.74,5A7.28,7.28,0,0,1,72.47,28a8.38,8.38,0,0,1-4.83-1.46l1.26-3.19a6.68,6.68,0,0,0,3.95,1.48c2,0,3-.73,3-2.2a3.2,3.2,0,0,0-.7-2,9.08,9.08,0,0,0-2.9-2.09,14,14,0,0,1-3-1.91,5.18,5.18,0,0,1-1.18-1.78,6.21,6.21,0,0,1-.41-2.28,5.1,5.1,0,0,1,1.63-3.87,5.83,5.83,0,0,1,4.16-1.54,7.5,7.5,0,0,1,4.87,1.31l-1,3.07a6.21,6.21,0,0,0-3.77-1.34,2.43,2.43,0,0,0-1.82.65,2.3,2.3,0,0,0-.65,1.69c0,1.16,1.22,2.36,3.64,3.6A12.08,12.08,0,0,1,77.48,18,5.68,5.68,0,0,1,78.77,20a6.61,6.61,0,0,1,.44,2.46A5.07,5.07,0,0,1,77.38,26.45Z"/></svg>