<svg id="Layer_1" data-name="Layer 1" xmlns="http://www.w3.org/2000/svg" viewBox="0 0 526.96 210.78">
  <defs>
    <style>.estonia-class-1{fill:#0f6eb6;}</style>
  </defs>
  <path class="estonia-class-1" d="M94.1,55c-.91,1.8-.55,2.31,1.29,2.91a12.08,12.08,0,0,1,4,2c2.26,1.91,2,4.83-.5,6.46A24.2,24.2,0,0,1,95.48,68c.65,1.28,1.33,2.54,3.23,2.19C100,70,100.38,71,101,72H97.85a1.9,1.9,0,0,0,2.33,1.69c1.3-.11,2.56-.09,3,1.67h-3c.26,1.14.81,1.6,1.86,1.55a5.87,5.87,0,0,1,2,.2,1.87,1.87,0,0,1,1.25,2.33l-1.64-.5c.31,1.79.55,3.35.85,4.91.25,1.34-.63,2.21-2.32,2.47a17.76,17.76,0,0,0-2.75.92c-.29-1-1.89-2-.42-3.67l-.51-.18L96.93,86,94,87.36c-.61-1.06.11-3.35,1.43-4.28l-.23-.29a21.09,21.09,0,0,0-1.59,1.39c-.67.73-1.26,1.53-1.89,2.3l-.62-.33a33.78,33.78,0,0,1,1.56-4A2.62,2.62,0,0,1,95.5,81c.33,0,.65.06,1,.07,1.63,0,2-.46,1.58-2.11-1.93-1.06-3,1.52-4.71,1.17l.21-.35a10.27,10.27,0,0,0-2.13-1.54c-3.14-1.24-4.23-3.1-3.49-6.38a2.38,2.38,0,0,0-1.46-3,7.59,7.59,0,0,0-4-.47,28.06,28.06,0,0,0-5.4,2.16C73,72.5,69,74.47,64.91,76.39c-1.08.51-1.16,1-.25,2-1.37.93-4.18.33-4.81-1.14a2.57,2.57,0,0,1,.21-1.78,18.22,18.22,0,0,1,1.13-1.57c1.24-2.12.82-3.79-1.64-5.78a7.08,7.08,0,0,0,.25,2.13c.89,1.67.85,2.19-.7,3.66l-1-1.51a1.86,1.86,0,0,0-.39,2.48A2,2,0,0,1,58.11,76c-.36,2.18.88,3.26,2.74,4-2.09,1.36-2.8,1.32-4.49-.21a1.15,1.15,0,0,1-.35-.67c-.17-1.18-.29-2.36-.45-3.69-1.06.65-1.52,1.26-1.28,2.39a9,9,0,0,1-.19,2.48l2.38,1.6c-1.84,1.13-3,1.24-3.65-.07-.57-1.15-.42-2.66-.62-4.25-1.75.57-.54,2.17-1.12,3-1.61-.47-2.1-1.14-1.78-2.76a1.88,1.88,0,0,0-.94-2.23c-1.31,2.25-1.15,4.16.49,5.86-1.33,2.7-1.52,2.82-4.14,2.52l1.5-2.3-.32-.42c-.59.36-1.4.58-1.71,1.1-.84,1.4-1.82,2.2-3.57,1.6,0-.25.06-.72-.13-.9a4.38,4.38,0,0,0-1.23-.59c-.15.41-.51.93-.39,1.22a1.76,1.76,0,0,1-.72,2.4c-.72.54-1.4,1.14-2,1.61-.47-.6-.78-1.1-1.18-1.52-1-1-.37-1.84.37-2.65-1.45.3-1.78.9-1.52,2.52l-4.06,1.12c-.37-.63.55-3.15,2-4.56-1.31.11-1.79.56-2.11,2.12-.14.69-.23,1.08-1.15.85-.54-.13-1.22.28-1.88.46-.08-.17,0-.59.59-2.13a7.12,7.12,0,0,1,1.1-2.41,8.57,8.57,0,0,1,2.54-1.2l-1.51-.19a2.38,2.38,0,0,1,3-.86,6.15,6.15,0,0,0,6.25-1.09c1-.72,2.09-1.3,2.94-1.82l-2.65-1.5.15-.34L40.86,74l.13-.38c-.64-.23-1.38-.77-1.91-.61-1.45.43-2.29-.15-3.09-1.35l1.95-.52.11-.35c-.66-.22-1.41-.77-2-.61-1.59.48-2.4-.35-3.21-1.42.1-.09.16-.19.23-.2.83-.17,1.85-.3,1.46-1.49s-1.19-.62-2-.31a2.36,2.36,0,0,1-2.78-.66c-.62-.65-1.27-1.27-2.05-2,.7-.22,1.28-.24,1.38-.47a1.3,1.3,0,0,1,2-.78c.16.07.44-.16.66-.25-.19-.19-.36-.51-.57-.54-2.9-.36-3.33-1.06-2.35-4.09l-1.3-.86c1.94-1.06,3.53.31,5.42.35l-1.34-1-.37-2.27c1.28-.61,2.93.6,4,3.55L35.57,54a1.35,1.35,0,0,1,.45.13A5.15,5.15,0,0,1,37.3,60c-1,1.92-1,2.29.59,3.82.87.82,1.84,1.54,2.72,2.27L40.14,69c1-1.14,1.9-2,2.6-2.95a7.81,7.81,0,0,0,.75-2l-.39-.22-1.11.6a11.81,11.81,0,0,1,.47-2.94,5.6,5.6,0,0,0,.54-4.1,4.4,4.4,0,0,1,.13-1.32l2.24,2.6c1.1-1.18,1-1.78-.61-2.47a9.13,9.13,0,0,1-1.3-.85c2.47-.85,4.73-1.78,7.07-2.39,1.69-.45,3.33.14,4.95.87a35.67,35.67,0,0,0,4.78,1.4,9.4,9.4,0,0,1-1.39,1c-1.61.71-1.73,1.18-.64,2.56l2-2.52.35,0a28.45,28.45,0,0,0,0,3.92,33.91,33.91,0,0,0,1.18,4.14l-1.33-.43A1.64,1.64,0,0,0,61,66.24,26.28,26.28,0,0,1,63.43,69l-.56-3.25c1.16.15,2.46.38,3.77.47,4.76.32,9.33-.75,13.84-2.05a23.88,23.88,0,0,1,13.71,0,3.18,3.18,0,0,0,1.77.14,2.06,2.06,0,0,0,1.25-1.16c.09-.34-.55-.88-.86-1.33-.47.33-1,.65-1.42,1-.13.1-.16.31-.23.45-1.83-.32-2.22-1.23-1.33-3L93,60.08l-1.3,2.11c-.23-.09-1-.19-1-.44a9.91,9.91,0,0,1,.07-2.32L89,61.79l-3.84.5L85,62c1.37-1,2.75-2.07,4.1-3.13.32-.25.72-.6.77-.94C90.15,55.51,91.5,54.53,94.1,55ZM45.55,60.11a2.85,2.85,0,0,0,1,4.2c.32.19.8.27.94.54.93,1.78,2.12,3.47,1.49,5.72-.4,1.41.44,2.19,1.92,2.05a8,8,0,0,1,1.38-.08c2.24.19,2.77-.38,2.33-2.57A6.4,6.4,0,0,1,57,64.35a2.77,2.77,0,0,0,1-4.26c.06,1.78-.49,3.06-2.37,3.44-.24,0-.43.6-.54,1-.5,1.47-1.66,1.7-2.76.56L53,63.13H50.55l.76,2c-1.57,1.2-2.35.79-3-1.55C46.15,63,46,62.79,45.55,60.11Zm-1.42,8.07c-2.84,2.13-3,4.08-1.19,6.54A23.68,23.68,0,0,1,44.13,77a15,15,0,0,0,1,1.34,22.18,22.18,0,0,1,.74-3.54,1.93,1.93,0,0,0-.46-2.37l-1,1.5c-1.48-1.53-1.53-2.2-.64-3.82A6,6,0,0,0,44.13,68.18Zm2.48-8.77a17.87,17.87,0,0,0,1.85,2.49c.56.54,1.18.24,1.49-.55a10.09,10.09,0,0,1,.9-1.44C49.76,58.83,48,60,46.61,59.41Zm10.47,0c-1.45.59-3.26-.66-4.34.53a13.79,13.79,0,0,0,.89,1.28c.28.32.62.78.94.79s.67-.45,1-.75.48-.6.72-.89S56.8,59.77,57.08,59.45ZM50,54.85c1.38,1.06,1.32,3.27,3.89,3C52.49,56.78,52.41,54.73,50,54.85Zm3.54.58c.9.94,1.16,2.41,3,2.13C55.56,56.68,55.33,55.17,53.51,55.43Zm-6.33,0c1.07.88,1.35,2.32,2.92,2C49.29,56.75,49.19,55.14,47.18,55.46Z"/>
  <path class="estonia-class-1" d="M31.63,152.85a2.62,2.62,0,0,0-2,2.3,1.26,1.26,0,0,1-.76.83,16.74,16.74,0,0,1-2.47.34,11.58,11.58,0,0,1,1.18-3.45,7.92,7.92,0,0,1,3.35-2.18l-1.56-.17a2.48,2.48,0,0,1,3.21-.84,5.69,5.69,0,0,0,5.63-.89c1.24-.88,2.59-1.61,3.9-2.5-1.53.58-2.36-.28-3.16-1.38l1.93-.48.13-.38c-.63-.22-1.35-.76-1.89-.61A2.55,2.55,0,0,1,36,142.1l1.89-.54.11-.43c-.66-.19-1.4-.67-2-.52-1.61.47-2.39-.44-3.29-1.54.38-.08.74,0,.88-.21.38-.42,1-1,.91-1.38-.12-.79-.82-.85-1.53-.49a2.49,2.49,0,0,1-3.42-.79A12.09,12.09,0,0,0,28,134.75a7,7,0,0,1,1.42-1.22,10.78,10.78,0,0,1,1.73-.3,2.38,2.38,0,0,0,.68-.4c-.19-.15-.36-.43-.57-.45-2.92-.33-3.41-1.12-2.36-4l-1.32-.88c1.95-1,3.54.3,5.38.34l-1.28-1-.4-2.3c1.21-.64,2.86.56,4,3.49l.22-3.7c1.81,1,2.91,4,1.85,5.71-1.33,2.15-1.08,2.68.86,4.48.74.68,1.58,1.27,2.35,1.9l-.5,3c1.09-1.18,2-2.07,2.79-3.09a7.87,7.87,0,0,0,.62-2.24l-1.6.83a15.36,15.36,0,0,1,.68-3.31,4.73,4.73,0,0,0,.41-3.43,8.05,8.05,0,0,1,0-1.77l2.37,2.7c1.08-1.14,1-1.76-.53-2.41a17.72,17.72,0,0,1-1.75-1.06c.64-.2.89-.36,1.11-.33,1.87.28,3.26-1.09,4.94-1.39a14.89,14.89,0,0,1,4.6-.29c1.26.18,2.41,1.1,3.66,1.5a12.81,12.81,0,0,0,2.65.29l.15.34a9.22,9.22,0,0,1-1.36.91c-1.59.7-1.71,1.23-.62,2.49l2.08-2.46.51,0c-1.5,2.84,1,5.18.62,8l-.9-.43c-.59,1-.31,1.66.54,2.39a27.1,27.1,0,0,1,2.39,2.75l-.6-3.3,1.91.3c5,.8,9.82-.19,14.55-1.56,5.08-1.48,10.1-1.86,15.19-.22a2.47,2.47,0,0,0,1.63,0,2.36,2.36,0,0,0,1.08-1.34c.08-.27-.56-1.08-.78-1a4,4,0,0,0-1.49.83c-.12.08-.14.32-.2.47-1.79-.16-2.23-1.07-1.44-2.9l-.31-.2-1.26,2c-.23-.08-1-.16-1-.4a10.38,10.38,0,0,1,.06-2.38l-1.7,2.4-3.89.49-.21-.24c1.33-1,2.63-2.1,4-3.06.55-.39.91-.63.92-1.45,0-1.9,1.73-2.88,3.9-2.56,0,.76-.26,1.65.08,2.15s1.28.54,1.92.88a17.45,17.45,0,0,1,3.8,2.17,3.73,3.73,0,0,1-.46,6.1,24.42,24.42,0,0,1-3.63,1.76c.56,1.3,1.31,2.43,3.27,2.26.7-.06,1.46.7,2.19,1.09l-.18.54h-3a1.91,1.91,0,0,0,2.37,1.73c1.41-.17,2.57.11,3.06,1.81h-3.06c.3,1.69,1.51,1.46,2.6,1.47,1.89,0,2.57.71,2.46,2.49l-1.58-.42c.29,1.72.49,3.24.82,4.72s-.54,2.33-2.3,2.63a21.19,21.19,0,0,0-2.78.89c-.31-1-1.94-2.16-.23-3.74-1.38.3-1.63.63-1.89,2.32L94,157.76c-.54-1.45.11-3.15,1.64-4.73a12,12,0,0,0-1.9,1.38,28.16,28.16,0,0,0-2,2.52c-.27-.27-.4-.35-.38-.4a23.52,23.52,0,0,1,1.09-3.73c.67-1.45,2.07-1.46,3.49-1.35,2.15.17,2.6-.33,1.93-2.52l-4.58,1.75c-.08-1.38-1-1.77-2-2.16-3.05-1.1-4.07-3.07-3.36-6.18A3,3,0,0,0,85,138.72a8.55,8.55,0,0,0-3.8.44c-2.36.94-4.6,2.19-6.9,3.28-3,1.44-6.11,2.88-9.2,4.26-1.3.59-1.43,1-.46,2.1A3.64,3.64,0,0,1,60,147.74a2.74,2.74,0,0,1,0-1.89c.11-.41.58-.71.85-1.09,1.6-2.27,1.32-4-1.27-6a5.59,5.59,0,0,0,.27,1.91c.84,1.56.75,2.27-.8,3.57l-.92-1.5c-1.64,1.54.41,3,.06,4.42-.56,2.27,1.64,2.29,2.54,3.35-1.28.93-2.51,1.21-3.87,0a1.8,1.8,0,0,1-.86-1.65,13.33,13.33,0,0,0-.55-3,1.93,1.93,0,0,0-1.16,2.36,8.54,8.54,0,0,1-.24,2.41l2.47,1.64c-1.12.61-2.09,1.42-3.19.33a3.54,3.54,0,0,1-.9-1.67,20.34,20.34,0,0,1-.07-2.22c0-.25-.37-.47-.58-.71-.19.25-.52.48-.55.75a20.67,20.67,0,0,0,0,2.23c-1.73-.47-2.24-1.16-1.93-2.77a1.79,1.79,0,0,0-1-2.25c-1.17,2.93-1.05,4.12.58,5.87-1.37,2.72-1.59,2.85-4.09,2.49L46.24,152a1.5,1.5,0,0,0-2.13.79,2.6,2.6,0,0,1-3.47,1.6c0-.23,0-.7-.13-.88a4.85,4.85,0,0,0-1.22-.63c-.16.41-.57.92-.44,1.19a1.79,1.79,0,0,1-.8,2.48c-.72.53-1.38,1.11-1.89,1.53a10,10,0,0,0-1.07-1.41c-.89-.8-.84-1.47.29-2.8-1.51.39-1.83,1-1.48,2.9-1.44,0-3-.33-4.08,1.2C29.73,156,30.76,154.51,31.63,152.85Zm19.71-17.27c-1.66.93-2.38.65-2.85-1-.07-.26-.26-.65-.45-.69-1.89-.39-2.54-1.64-2.33-3.63a2.89,2.89,0,0,0,.8,4.41c.31.19.8.28.94.55.93,1.78,2.12,3.47,1.48,5.72-.4,1.42.45,2.18,1.94,2a7.1,7.1,0,0,1,1.38-.07c2.25.19,2.75-.36,2.3-2.57A6.43,6.43,0,0,1,57,134.72a2.9,2.9,0,0,0,1.05-4.24c-.43,2.31-.44,2.3-2.54,3.43a1.33,1.33,0,0,0-.45.73c-.52,1.66-1.44,1.94-2.84.85l.8-2H50.55Zm-7.22,3c-2.88,2.28-3,4.16-1.06,6.69a18.11,18.11,0,0,1,1,2,13.59,13.59,0,0,0,1,1.36l.4-.19c-1.08-1.88,1.61-3.68-.06-5.71l-1,1.54c-1.49-1.5-1.54-2.19-.65-3.83A5.87,5.87,0,0,0,44.12,138.56Zm6.66-8.31c-1.08-1.05-2.78,0-4.28-.69.36,1.34,1.77,1.45,2,2.72.1.56,1.1.27,1.44-.49C50.12,131.36,50.37,131,50.78,130.25Zm6.33-.31-.21-.35c-1.29.78-3.14-.54-4.56,1.3h1.27l-.24.31,1.16,1.32c.34-.39.67-.8,1-1.19a4.27,4.27,0,0,1,.48-.47Zm-3.26-1.7c-1.32-1.09-1.48-3-3.49-2.89C51.36,126.34,51.35,128.47,53.85,128.24ZM50.37,128c-1-.88-1.19-2.37-3-2.2C48.22,126.82,48.53,128.21,50.37,128Zm6.35,0c-1.19-.84-1.35-2.44-3.19-2.19C54.39,126.83,54.72,128.16,56.72,128Z"/>
  <path class="estonia-class-1" d="M93.13,95.22c-.32.43-.61.88-1,1.29a12.18,12.18,0,0,1-.88.88,5.15,5.15,0,0,1-.79-1.29c-.08-.29.22-.68.35-1l-.3-.21L89.07,97l-3.74.42-.24-.32c1.28-1,2.53-2,3.85-2.93.53-.38,1-.59,1-1.43,0-2,2-3.11,4.08-2.52-.1.65-.47,1.43-.23,1.87s1.09.68,1.68,1A21.53,21.53,0,0,1,99.24,95c2.46,2,2.22,5.06-.45,6.74a24.3,24.3,0,0,1-3.29,1.45A3.1,3.1,0,0,0,99,105.5c.64,0,1.35.76,2,1.18l-.17.46-1.42.06H97.79a2,2,0,0,0,2.33,1.69c1.27-.13,2.56-.17,3,1.69l-3,.13c.38,1.7,1.63,1.45,2.76,1.46,1.79,0,2.45.74,2.29,2.45l-1.57-.47c.3,1.76.54,3.33.85,4.88.24,1.26-.52,2.14-2,2.44-1,.21-2,.59-3.09.92-.3-1-2-2.08,0-3.88a2.37,2.37,0,0,0-2.05,2.5L94,122.55c-.57-1.29,0-3.09,1.64-4.34l-.21-.3a13.07,13.07,0,0,0-1.74,1.36c-.71.76-1.3,1.62-2.08,2.61-.6-2,.78-5,2.31-5.49a6.73,6.73,0,0,1,2.33-.06c1.74.12,2.27-.53,1.64-2.57l-4.46,1.66.15-.48a13.25,13.25,0,0,0-2.3-1.55c-3-1.23-4.16-3.15-3.4-6.2a2.6,2.6,0,0,0-1.29-3.07,5,5,0,0,0-4.81-.36c-2.39,1-4.71,2.17-7.06,3.26-3.22,1.51-6.44,3-9.69,4.53-1.17.53-1.3.88-.5,2-1.3.86-4.11.22-4.69-1.2a2.86,2.86,0,0,1,.3-1.88c.26-.62.84-1.1,1.16-1.71,1.08-2,.65-3.59-1.75-5.54a7.17,7.17,0,0,0,.23,2.13c.9,1.7.88,2.12-.67,3.7l-1-1.54a1.87,1.87,0,0,0-.4,2.47,2.22,2.22,0,0,1,.39,1.31c-.43,2.12.88,3.06,2.55,3.77a2.91,2.91,0,0,1-4.57-.34c-.14-.22,0-.61-.07-.91-.17-1-.36-2.08-.56-3.19a2,2,0,0,0-1.18,2.45,9.05,9.05,0,0,1-.24,2.37l2.77,1.8c-1.17.23-2.07.67-2.84.51a1.83,1.83,0,0,1-1.62-2.09,25,25,0,0,0,0-2.74c-1.06-.12-1.06-.12-1.25,2.77-1.5-.26-2.19-1.09-1.89-2.53a1.94,1.94,0,0,0-1.06-2.47c-.65,2.09-1.42,4.13.62,5.87-1.16,2.66-1.45,2.85-4,2.53l1.42-2.35a1.58,1.58,0,0,0-2.21.94c-.67,1.48-1.82,1.82-3.33,1.44-.07-.34,0-.83-.23-1a1.89,1.89,0,0,0-1.26-.41c-.17,0-.5.82-.37,1.06.62,1.21.08,1.91-.85,2.58-.68.49-1.31,1-1.8,1.45a10.27,10.27,0,0,0-1.09-1.4c-1.11-1-.55-1.85.3-2.74-1.52.38-1.8.9-1.52,2.88-1.46-.11-3-.39-3.88,1.34-.48-1.2.34-3.54,1.72-5.24a2.31,2.31,0,0,0-2,2.19c-.11.82-.32,1.1-1.26.85-.51-.13-1.18.38-1.86.62,0-.11-.21-.35-.15-.52a11.57,11.57,0,0,1,1.35-3.48,10.27,10.27,0,0,1,2.85-1.85l-1.18-.28a2.64,2.64,0,0,1,3.27-.7,5.37,5.37,0,0,0,5.36-.83c1.25-.87,2.6-1.6,3.62-2.23l-2.74-1.3.13-.42,1.8-.52.12-.4c-.61-.22-1.3-.75-1.8-.61A2.54,2.54,0,0,1,36,106.94l1.89-.63L38,106c-.59-.23-1.3-.78-1.75-.62-1.57.55-2.47-.18-3.38-1.38a5.51,5.51,0,0,1,.84-.32c.78-.19,1.23-.7.84-1.39a1.58,1.58,0,0,0-1.45-.45,4.27,4.27,0,0,1-4.92-2.13,1.53,1.53,0,0,1-.05-.52c.4-.15,1-.2,1.09-.45A1.26,1.26,0,0,1,31.12,98c.17.07.49-.21.73-.33-.18-.16-.37-.47-.53-.45-1.07.11-2.23.14-2.59-1A12,12,0,0,1,28.68,93l-.8-.61c1.07-.89,3.6-.51,5.28.51l-1.73-1.57c.73-.7.38-1.35-.59-1.83,1.75-.74,3.26.36,4.53,3.34,0-.92,0-1.47,0-2s.14-1.07.22-1.65a.75.75,0,0,1,.32.06,4.92,4.92,0,0,1,1.29,6c-1,1.67-.93,2.08.41,3.39,1,.93,2,1.76,3,2.57l-.47,3.07a20.39,20.39,0,0,1,2.32-2.75A1.79,1.79,0,0,0,43.07,99l-1.14.68a16.11,16.11,0,0,1,.67-3.33A4.72,4.72,0,0,0,43,93a8.38,8.38,0,0,1,0-1.81l2.39,2.77c1.08-1.29,1-1.82-.67-2.53a13.07,13.07,0,0,1-1.52-.94c.48-.23.68-.42.86-.41,2,.2,3.62-1.06,5.44-1.53a9.42,9.42,0,0,1,4-.2,21.36,21.36,0,0,1,3.81,1.5,3.26,3.26,0,0,0,1,.21c.58,0,1.17,0,1.75,0l.17.47a8.81,8.81,0,0,1-1.33.89c-1.62.72-1.74,1.23-.64,2.53l2.06-2.49h.45c-1.21,2.84.93,5.25.74,8.14l-1-.48a1.67,1.67,0,0,0,.45,2.34,28,28,0,0,1,2.54,2.89l-.74-3.45C68.91,102.46,75,101,81,99.28a23,23,0,0,1,12.89,0,3.77,3.77,0,0,0,1.89.27,2.86,2.86,0,0,0,1.48-1.29c.11-.19-.59-.84-.92-1.28-.47.4-1,.79-1.42,1.2a1,1,0,0,0-.2.31C92.86,98.11,92.52,97.29,93.13,95.22ZM48.39,98.7c-2.22-.17-2.83-1.56-2.75-3.63a3,3,0,0,0,.91,4.46c.32.19.79.29.93.56,1,1.79,2.08,3.51,1.44,5.76-.37,1.28.4,2,1.75,1.94.56,0,1.12-.06,1.67,0,2.17.1,2.65-.45,2.22-2.59A6.38,6.38,0,0,1,57,99.54,2.91,2.91,0,0,0,58,95.18c.05,1.89-.53,3.21-2.49,3.56-.19,0-.33.58-.44.91-.48,1.45-1.67,1.69-2.76.58L53,98.34H50.56A5.5,5.5,0,0,0,51,99.57c.61.87.15,1.16-.64,1.29C48.78,101.12,48.56,100,48.39,98.7Zm-4.28,4.39c-2.8,2.2-3,4.36-1.17,6.81A21.29,21.29,0,0,1,44.08,112a15.4,15.4,0,0,0,1,1.42l.51-.19c-1.2-1.9,1.57-3.68-.13-5.73l-1,1.57c-1.52-1.45-1.57-2.14-.63-3.88A6.71,6.71,0,0,0,44.11,103.09Zm6.76-8c-1.18-1.13-2.89,0-4.51-.92.83,1.2,1.35,2.06,2,2.83.48.59,1.28.27,1.6-.5A11.61,11.61,0,0,1,50.87,95.13Zm1.88.06a14.49,14.49,0,0,0,.87,1.27c.29.31.6.74,1,.81s.87-.39.88-.63c0-.68.36-.9.9-1.14.32-.14.5-.59.74-.9C55.67,95.31,53.82,93.87,52.75,95.19Zm1-2.21c-1.24-1.13-1.39-3.07-3.84-3C51.33,91,51.22,93.25,53.73,93Zm-3.46-.22c-.89-1-1.19-2.39-3-2.19C48.17,91.52,48.45,92.93,50.27,92.76Zm3.17-2.18c.92.94,1.23,2.32,3.11,2.19C55.51,91.75,55.24,90.34,53.44,90.58Z"/>
  <path class="estonia-class-1" d="M130.43,26.68h2.45V184.36h-2.45Z"/>
  <path d="M158.08,110.84h3.7q2.41,8.37,4.82,16.74h.25q2.4-8.35,4.82-16.71h3.74v20.82h-2.75V116.25c-.2.52-.35.86-.47,1.21-1.37,4.38-2.75,8.75-4.11,13.13-.21.68-.35,1.24-1.33,1.24s-1.16-.46-1.38-1.19c-1.32-4.3-2.67-8.58-4-12.87a2.66,2.66,0,0,0-.55-1v14.94h-2.73Z"/>
  <path class="estonia-class-1" d="M83.64,113.25,83,110.47c-1.33.56-1.29,1.59-1,2.64a2.19,2.19,0,0,1-1.16,2.94l-.64-2.73c-1.28.56-1.31,1.51-1,2.54A2.36,2.36,0,0,1,78,119l-.57-2.17a29.9,29.9,0,0,0-2.15,2.62A3.08,3.08,0,0,1,72.54,121l-.6-2.17c-.56,1-.82,2-1.46,2.44s-1.67.17-2.51.34a17.36,17.36,0,0,0-2.17.84l.86-3.28L63,122.61c-.53-2.62,1.72-3.26,2.55-5.19l-4.25,3.47-.32-.2c0-.47-.06-1,.17-1.4a11.31,11.31,0,0,1,2.32-3,6.35,6.35,0,0,1,3-.93,5.87,5.87,0,0,1,2,.52c1.9.52,2.89.15,4-1.47.26-.36.61-.66,1-1.1l-2.21.18c1-3.94,3.16-6.39,7.32-6.76,1.14-.1,2.67,0,2.73-1.89,0-.1.27-.22.43-.31a4.69,4.69,0,0,1,4.6.56c1,.92,1,1.8-.14,2.55s-1.77,1.59-1.39,2.9S84.69,112.61,83.64,113.25Z"/>
  <path class="estonia-class-1" d="M80.24,148.46a1.8,1.8,0,0,0-1,2.51A2.42,2.42,0,0,1,78,154.21L77.38,152c-.87,1.12-1.57,2-2.2,2.85a2.73,2.73,0,0,1-2.65,1.37l-.59-2c-1,2.59-1.08,2.63-3.94,2.62a7.6,7.6,0,0,0-2.16.85l.72-3.18-3.36,3.12c-.7-1.53-.26-2.3,2.17-4.83l-4,3.24-.46-.21a8.89,8.89,0,0,1,.52-1.73c.36-.65.95-1.16,1.33-1.8a3.42,3.42,0,0,1,3.52-1.72,17.6,17.6,0,0,1,2,.52c2.09.59,3,.28,4.28-1.49a12.13,12.13,0,0,1,1.07-1.1c-.66.07-1.25.15-1.84.2a3.05,3.05,0,0,1-.56-.07c.33-.77.67-1.47.94-2.2A6.28,6.28,0,0,1,77,142.3c1-.21,2-.33,3-.6.45-.13,1.13-.52,1.15-.83.1-1.37,1.11-1.45,2-1.36a7.91,7.91,0,0,1,3.24.9c1.13.69.95,1.7-.16,2.48s-1.73,1.56-1.38,2.8a2.19,2.19,0,0,1-1.21,2.74l-.63-2.7c-1.29.78-1.41.93-1,2.58a2.28,2.28,0,0,1-1.16,3Z"/>
  <path class="estonia-class-1" d="M83.62,78,83,75.26a1.84,1.84,0,0,0-1,2.6,2.25,2.25,0,0,1-1.12,3l-.67-2.79a1.79,1.79,0,0,0-1,2.55A2.37,2.37,0,0,1,78,83.81l-.65-2.25c-.87,1.14-1.56,2-2.21,2.91a2.63,2.63,0,0,1-2.61,1.3l-.59-2c-1,2.65-1.17,2.7-3.9,2.64a7.27,7.27,0,0,0-2.2.81l.76-3.2L63,87.43c-.51-2.68,1.77-3.33,2.69-5.28l-4.38,3.53-.4-.23a5.88,5.88,0,0,1,.42-1.6A26,26,0,0,1,63,81.49a3.39,3.39,0,0,1,3.72-1.24c.72.16,1.43.39,2.14.61a3,3,0,0,0,3.15-.93c.57-.58,1-1.23,1.53-1.81l-2.39.21c.52-1.17.92-2.19,1.4-3.18a6.3,6.3,0,0,1,4.73-3.3A17.14,17.14,0,0,0,80,71.28c.51-.19.87-.78,1.27-1.22.13-.15.14-.43.29-.56,1.32-1.09,4.62-.38,5.35,1.14.33.7.35,1.3-.47,1.76a2.9,2.9,0,0,0-1.6,3.34c.12.74-.47,1.59-.74,2.39Z"/>
  <path d="M190,120.68v11h-2.74V115.18c2.42-.55,2.68-.44,3.82,1.62,1.73,3.12,3.45,6.23,5.44,9.31v-11h2.89v16.52c-2.6.5-2.66.48-3.9-1.76L191,121.71c-.22-.39-.46-.76-.69-1.14Z"/>
  <path d="M239.05,115c2.21,0,4.3-.08,6.38,0a4.57,4.57,0,0,1,4.42,3.23c.65,2.2.07,3.83-2,5.5,3.49,1.74,1.81,5.16,2.57,7.78-.09.07-.16.16-.23.17-3,.32-3,.32-3-2.61v-.7c0-2.82-.6-3.4-3.45-3.4h-1.84v6.71h-2.87Zm3,2.28v5.4c4,.28,5.1-.32,5.12-2.63S246,117,242,117.3Z"/>
  <path d="M386.89,115c2,0,3.93,0,5.83,0,2.53,0,4.29,1.19,4.93,3.12.73,2.22.16,3.92-1.95,5.66,3.55,1.73,1.64,5.18,2.65,7.9H395.1c0-1.11,0-2.21,0-3.3,0-2.67-.72-3.37-3.37-3.37h-1.94v6.67h-2.9Zm3,7.78c1.67-.2,3.5.66,4.66-1a3,3,0,0,0-.07-3.53c-1.21-1.67-3-.76-4.59-1Z"/>
  <path class="estonia-class-1" d="M77.18,127a9.43,9.43,0,0,1-5.39,2.79l-1.62-1.93c.08,1,.46,1.94.14,2.48s-1.33.73-1.92,1c-.32-.26-.41-.3-.45-.37a8.52,8.52,0,0,0-.81-1.24c0-.05-.82.31-.82.47,0,.55.07,1.44.39,1.57a6.5,6.5,0,0,0,3.25.81c3-.48,5.88-1.21,8.78-2,3.18-.82,6.32-1.79,9.49-2.68a5,5,0,0,1,1,0,4.62,4.62,0,0,1-.6.73c-1.27.92-2.56,1.82-3.84,2.73a2.28,2.28,0,0,1-.59.36c-4.52,1.15-9,2.4-13.59,3.37a10.12,10.12,0,0,1-4.38-.39,4.47,4.47,0,0,1-3.44-4.07A4.52,4.52,0,0,1,66,126.46a7.5,7.5,0,0,1,3-.47C71.7,126.24,74.41,126.67,77.18,127Z"/>
  <path class="estonia-class-1" d="M77.16,91.84a9.73,9.73,0,0,1-5.4,2.83l-1.39-1.81c.76,2.22.13,3.13-2.44,3.15,0-.2.09-.49,0-.58a12.2,12.2,0,0,0-1.15-.85c-.18.46-.61,1-.5,1.37a2.18,2.18,0,0,0,2.42,1.48,30.54,30.54,0,0,0,5.9-.75c4.39-1.14,8.72-2.52,13.08-3.79a1.88,1.88,0,0,1,1.39.13,4.34,4.34,0,0,1-.63.58c-.46.31-1,.55-1.42.88C82,98.23,75.94,99.13,70,100a9.88,9.88,0,0,1-4.34-.62,4,4,0,0,1-2.84-3.92,4.29,4.29,0,0,1,2.65-3.94,7.66,7.66,0,0,1,4.88-.58C72.58,91.26,74.86,91.53,77.16,91.84Z"/>
  <path d="M321.66,125.49h2.61a5.67,5.67,0,0,1-4.09,6.35,6.66,6.66,0,0,1-8.07-3.28c-1.23-2.51-1.24-12,0-14.49,1.38-2.87,4.39-4.18,7.76-3.39,3,.7,4.55,2.94,4.46,6.43h-2.64c-.1-.48-.18-1-.3-1.54-.4-1.78-1.26-2.64-2.81-2.8a3.34,3.34,0,0,0-3.8,2.14,3.7,3.7,0,0,0-.42,1.46c0,3.28-.12,6.57,0,9.85a3.64,3.64,0,0,0,2.43,3.45,3.28,3.28,0,0,0,4.58-2.63C321.49,126.54,321.56,126,321.66,125.49Z"/>
  <path class="estonia-class-1" d="M89.11,58a8.94,8.94,0,0,0-1.43.87c-4,3.55-9.2,4.15-14.07,5.42a19.46,19.46,0,0,1-6.6.3,4.59,4.59,0,0,1-4.26-4.39,4.91,4.91,0,0,1,4.42-4.47,14.85,14.85,0,0,1,3.46.06c2.19.23,4.37.56,6.4.83a7.89,7.89,0,0,1-5.2,2.78l-1.82-2c.19,1,.69,1.92.4,2.35-.43.63-1.41.89-2.41,1.44,0-.65,0-.95-.09-1.06a10.9,10.9,0,0,0-1.07-.83c-.22.46-.73,1.12-.59,1.32.43.59,1.1,1.38,1.69,1.39a24,24,0,0,0,6.17-.45c4-1,7.9-2.34,11.86-3.51,1-.28,1.94-.42,2.92-.62Z"/>
  <path d="M287.14,123.46a32.6,32.6,0,0,1-.39,3.85,6.09,6.09,0,0,1-11.95-.42,32.19,32.19,0,0,1-.06-6.51,5.89,5.89,0,0,1,6.22-5.63,6.14,6.14,0,0,1,6,5.92c.08.92,0,1.86,0,2.78Zm-9.73.05a33.43,33.43,0,0,0,.5,4,2.87,2.87,0,0,0,3,2.26,2.54,2.54,0,0,0,2.78-2.22,47.13,47.13,0,0,0,0-8.23,2.71,2.71,0,0,0-2.86-2.36,2.94,2.94,0,0,0-3,2.45A36.36,36.36,0,0,0,277.41,123.51Z"/>
  <path d="M327.8,115.05h2.93v7.39c0,1.3,0,2.6,0,3.89.08,2.17,1.26,3.43,3.19,3.46a3.05,3.05,0,0,0,3.29-3.32c.1-3.29,0-6.59.07-9.88V115h2.94V122c0,1.4,0,2.79,0,4.18a5.58,5.58,0,0,1-5.62,5.84c-3.93.18-6.54-1.65-6.75-5.19C327.63,123,327.8,119.06,327.8,115.05Z"/>
  <path d="M370.26,115.05h2.87c0,1,0,2,0,3,0,2.73,0,5.47,0,8.2,0,2.16,1.25,3.46,3.14,3.51a3,3,0,0,0,3.36-3.25c.15-3.06.07-6.12.09-9.17v-2.29h2.77a4.64,4.64,0,0,1,.11.76c0,3.47,0,7,0,10.42a5.53,5.53,0,0,1-5.68,5.75c-3.87.16-6.46-1.67-6.64-5.13C370.1,123,370.26,119,370.26,115.05Z"/>
  <path d="M222,119.9h-2.67c-.1-.33-.2-.72-.32-1.1A2.4,2.4,0,0,0,216.4,117a2.24,2.24,0,0,0-2.36,1.76,2.29,2.29,0,0,0,1.52,2.9c1.19.51,2.45.85,3.64,1.37,2.41,1,3.42,2.72,3.1,5a4.54,4.54,0,0,1-4.55,3.92,12.84,12.84,0,0,1-4.61-.6c-1.9-.64-2.62-2.25-2.41-4.42h2.56c.65,2.4,1.9,3.36,4.06,2.77a3.31,3.31,0,0,0,1.89-1.71,1.92,1.92,0,0,0-1-2.58c-1.46-.68-3-1.15-4.49-1.83a4.16,4.16,0,0,1-2.45-5.49,5.28,5.28,0,0,1,1.68-2.28,6.81,6.81,0,0,1,7.12-.12A4.51,4.51,0,0,1,222,119.9Z"/>
  <path d="M411.24,121.89v2.28h-6v5.35h7.06v2.14h-10V115.09h10v2.09H405.2v4.71Z"/>
  <path d="M158.09,79.38c2.56,0,5.06-.15,7.54.05a4.28,4.28,0,0,1,3.94,3.42c.59,2.26.48,4.43-1.33,6.2a14.35,14.35,0,0,1-1.13.9c2.75,1.25,2.66,3.7,2.73,6.13a39.7,39.7,0,0,0,.5,4c-1.46.44-1.85.26-2.06-1.42-.17-1.33-.16-2.68-.22-4-.11-2.53-1.43-3.84-3.92-3.86-1.43,0-2.85,0-4.39,0v9.42l-1.66.08Zm1.7,1.4v8.35a4.9,4.9,0,0,0,.85.13c1.35,0,2.7,0,4-.1,2.38-.24,3.47-1.71,3.41-4.37-.06-2.45-1.25-3.85-3.54-4C163,80.7,161.48,80.78,159.79,80.78Z"/>
  <path d="M219.37,100.24V83.57c2.09,0,4.13-.15,6.14.05a3.65,3.65,0,0,1,3.41,3,4.28,4.28,0,0,1-2,4.94,4.55,4.55,0,0,1-1.71,8.66h-5.87Zm1.69-1.57a40.06,40.06,0,0,0,4.4,0c1.55-.18,2.28-1.26,2.31-3s-.78-3-2.29-3.14a38.2,38.2,0,0,0-4.42,0Zm0-13.43v5.89a39,39,0,0,0,4.32-.39,2.57,2.57,0,0,0,1.9-2.87,2.36,2.36,0,0,0-2-2.6A38.85,38.85,0,0,0,221.09,85.24Z"/>
  <path d="M368.43,87.2v13h-1.62V83.62c1.18-.46,1.83,0,2.43,1,2.27,4,4.64,8,7.22,11.92v-13h1.68V100.1a1.68,1.68,0,0,1-2.31-1c-2.06-3.68-4.23-7.29-6.37-10.92-.22-.39-.48-.75-.72-1.12Z"/>
  <path d="M260,131.72H257.3a6.17,6.17,0,0,1-.08-1.11,15.52,15.52,0,0,0-2.19-9.69c-1-1.84-1.82-3.82-2.8-5.93.85,0,1.49.05,2.12,0a1.29,1.29,0,0,1,1.52,1c.87,2.24,1.84,4.44,2.85,6.87.91-2.18,1.84-4.1,2.5-6.1.48-1.43,1.23-2,2.7-1.77a10.43,10.43,0,0,0,1.27.08c-1.07,2.28-2,4.51-3.13,6.6a13.91,13.91,0,0,0-1.9,8.51,5.91,5.91,0,0,1,0,1.11A2.55,2.55,0,0,1,260,131.72Z"/>
  <path d="M301.17,115.08v2.1h-7.3v5.09h6.18v2.2h-6.23v7.23H291V115.08Z"/>
  <path d="M320.92,79.35v1.4h-9.27V88.5h8.11l.1,1.6h-8.21v8.64H321v1.43h-11V79.35Z"/>
  <path d="M285.11,91.82c-.1,1.26-.12,2.47-.31,3.65a5.6,5.6,0,0,1-5.41,5,5.27,5.27,0,0,1-5.71-4.61,30.32,30.32,0,0,1,0-8.13c.43-3,2.77-4.61,5.75-4.53a5.55,5.55,0,0,1,5.36,4.91C285,89.36,285,90.62,285.11,91.82Zm-1.8.59c-.08-1.72-.13-2.88-.21-4a3.94,3.94,0,0,0-.24-.94,3.79,3.79,0,0,0-3.74-2.77,3.4,3.4,0,0,0-3.62,2.84,44,44,0,0,0,0,8.66c.18,1.83,1.83,2.81,3.61,2.83a3.57,3.57,0,0,0,3.74-2.9A25.66,25.66,0,0,0,283.31,92.41Z"/>
  <path d="M350.68,91.4a24.47,24.47,0,0,1,.33-3.58,5.48,5.48,0,0,1,6-4.58,5.56,5.56,0,0,1,5.2,5.24,39.91,39.91,0,0,1,0,6.65,5.61,5.61,0,0,1-5.67,5.37,5.73,5.73,0,0,1-5.72-5.35C350.73,94.05,350.75,92.93,350.68,91.4Zm10.08.41a32.38,32.38,0,0,0-.44-4,3.69,3.69,0,0,0-3.75-3.09,3.46,3.46,0,0,0-3.72,3.06,40,40,0,0,0,0,8.26,3.46,3.46,0,0,0,3.76,3,3.63,3.63,0,0,0,3.68-3A33.49,33.49,0,0,0,360.76,91.81Z"/>
  <path d="M362.5,131.72h-2.93V117.3h-4.18v-2.22h11.28v2.1H362.5Z"/>
  <path d="M231.59,131.69h-3V117.22H224.4v-2.13h11.39v2.07h-4.2Z"/>
  <path d="M334.55,88.23h-1.44c-.94-3.08-2.38-4.06-4.85-3.39a2.73,2.73,0,0,0-2.16,2.42,2.54,2.54,0,0,0,1.5,2.86c1.3.6,2.68,1,4,1.59,2.77,1.2,3.78,3,3.1,5.56a4.13,4.13,0,0,1-.36.9c-1.07,1.92-4,2.81-6.83,2.09-2.42-.61-3.51-2-3.56-4.66.95-.38,1.58-.35,1.81.93.28,1.61,1.52,2.24,3,2.41s3,0,3.93-1.48a2.64,2.64,0,0,0-1.05-3.81c-1.35-.69-2.83-1.15-4.22-1.76-2.59-1.13-3.51-2.76-3-5.25.4-2,2.26-3.36,4.8-3.41C332.7,83.15,334.57,84.85,334.55,88.23Z"/>
  <path d="M213.18,83.52h1.59a6.5,6.5,0,0,1,.14.9c0,3.38,0,6.76,0,10.15-.07,4.37-3.44,6.84-7.66,5.67-2.11-.59-3.67-2-3.77-4.15-.2-4.15-.06-8.32-.06-12.55H205c0,2.17,0,4.29,0,6.42,0,1.62,0,3.24,0,4.86.1,2.57,1.7,4.19,4.06,4.19s4-1.7,4.07-4.33c0-3.2,0-6.4,0-9.6Z"/>
  <path d="M190.87,93.87v6.26h-1.75V83.57a59.7,59.7,0,0,1,6.7.05c2.29.26,3.78,2.7,3.65,5.36s-1.76,4.69-4.22,4.87C193.83,94,192.4,93.87,190.87,93.87Zm0-1.43c1.41,0,2.65.06,3.89,0,1.69-.1,2.75-1.38,2.87-3.33.14-2.17-.81-3.88-2.48-4.08a35.88,35.88,0,0,0-4.28,0Z"/>
  <path d="M401.76,100.11c-1.34.38-1.89,0-2.24-1.21-.89-3.07-1-3.05-4.16-3.05s-3.34,0-4.25,3.1c-.37,1.23-.94,1.56-2.2,1.13.71-2.15,1.41-4.29,2.13-6.44,1-3.12,2.08-6.24,3.18-9.34a1.46,1.46,0,0,1,1-.79,1.4,1.4,0,0,1,1.13.62C398.2,89.43,400,94.74,401.76,100.11Zm-9.16-5.8H398c-.9-2.76-1.76-5.4-2.74-8.37Z"/>
  <path d="M344.5,115h2.8v14.5h6.19c0,.73.06,1.35.09,2.12H344.5Z"/>
  <path d="M177.16,90.74h6.64l.07,1.42h-6.69v6.57h7.61v1.45H175.4V83.56h9.4V84.9h-7.64Z"/>
  <path d="M262.68,88.73H261.2c-.12-.53-.22-1-.34-1.51a3.12,3.12,0,0,0-2.55-2.45,3.37,3.37,0,0,0-3.5,1.16c-1.85,2.18-1.86,9.61,0,11.8a3.44,3.44,0,0,0,3.63,1.15,3,3,0,0,0,2.47-2.51c.1-.44.19-.89.29-1.38h1.38c.71,3.37-2.57,6.19-6.25,5.4a5.57,5.57,0,0,1-4.35-5,38,38,0,0,1,0-7.07,5.43,5.43,0,0,1,6-5.07C261,83.39,262.84,85.52,262.68,88.73Z"/>
  <path d="M291.13,100.17h-1.75V83.53h9.46c0,.43,0,.82.07,1.38h-7.74V91h6.61v1.56h-6.65Z"/>
  <path d="M206.84,131.72h-2.77V115.1h2.77Z"/>
  <path d="M182.71,131.73H180V115.05h2.72Z"/>
  <path d="M233.75,83.53h1.64V98.74H242v1.42h-8.29Z"/>
  <path d="M341.7,84.89h-4.42V83.53h10.64v1.35h-4.47v15.29l-1.75.08Z"/>
  <path d="M385.33,100.17h-1.57V83.54h1.57Z"/>
  <path d="M247.37,100.19h-1.56V83.55h1.56Z"/>
  <path class="estonia-class-1" d="M53.54,66.9l-.14,1.84H50.23l-.18-1.84Z"/>
  <path class="estonia-class-1" d="M51.74,71.56a2.21,2.21,0,0,1-.87,0c-.33-.12-.85-.37-.86-.59s.31-.89.55-.94a7.44,7.44,0,0,1,2.4,0c.27,0,.43.68.64,1a4.23,4.23,0,0,1-1,.51A3,3,0,0,1,51.74,71.56Z"/>
  <path class="estonia-class-1" d="M53.55,137.32l-.16,1.83H50.24l-.19-1.83Z"/>
  <path class="estonia-class-1" d="M51.78,142a2.61,2.61,0,0,1-.87,0c-.34-.12-.87-.34-.9-.56s.27-.91.52-1a6,6,0,0,1,2.27-.1c.32.06.54.69.81,1.06a6.68,6.68,0,0,1-1.06.55A2.19,2.19,0,0,1,51.78,142Z"/>
  <path class="estonia-class-1" d="M53.52,102.42,53.39,104H50.24l-.17-1.52a6.57,6.57,0,0,1,1.73-.59A5.78,5.78,0,0,1,53.52,102.42Z"/>
  <path class="estonia-class-1" d="M51.57,107.12l-1.63-1.05c.62-.36,1.23-1,1.84-1s1.73.61,1.75,1C53.6,107.41,52.47,106.69,51.57,107.12Z"/>
</svg>
