<?xml version="1.0" encoding="UTF-8"?>
<svg xmlns="http://www.w3.org/2000/svg" id="Layer_1" data-name="Layer 1" viewBox="0 0 388.36 160.84">
  <defs>
    <style>.cls-1{fill:#0a6eb5;}</style>
  </defs>
  <path class="cls-1" d="M9.05,102.74a.6.6,0,0,0-.3-.7c-.43-.2-.78-.59-1.27-.4-.24-.45.06-.61.26-.76s.18-.49.2-.71c-.09-.5-.77-.3-.87-.84a1.8,1.8,0,0,1,1.58-.43c.3.29.8.56.91.95.16.54.67.48.93.83a2.75,2.75,0,0,1,.81,1.76c.29-.82.29-.82,0-1.53.47-.2.05-.82.5-1-.19-.29-.38-.58-.15-1,.11,0,.29,0,.35,0,.61.59,1.31,1.13,1.23,2.12,0,.09,0,.21.06.25A2.75,2.75,0,0,1,14,103.9l-1.46,2.91A12.78,12.78,0,0,0,17,111.1c-.05.31-.33.41-.48.63-.09.41.13.9-.33,1.2l.41.86c.06,0,.14-.08.17-.14.46-.92.78-1.92,1.86-2.41a1.75,1.75,0,0,0,.84-1.19c-.42-.25-.05-.79-.26-1.15l-1,1a7.09,7.09,0,0,1,.73-4.59,1.94,1.94,0,0,0,.12-1.87,4.81,4.81,0,0,1,0-2.44c.66.78,1.4,1.39,2.07,2.11l.07.62c.33.17.76-.82.77-1.73a3.51,3.51,0,0,0-1.34-.86l-1.2-1.06c.74-.17,1.38-.76,2-.13.87-.08,1.31-.82,2.08-1a6.92,6.92,0,0,0,1-.17c.32-.11.48-.46.86-.6a2.28,2.28,0,0,1,.88-.22h3.21a8.39,8.39,0,0,0,3.15,1.15l.79.79c.18,0,.48.09.62,0,.76-.63,1.35.11,2.14.1-.57,1.22-1.86,1.18-2.59,2v1.18l.68.64c.22-.22.08-.47.13-.69l1.65-1.64c.06-.23-.09-.48.11-.67.06,0,.17.1.17.12-.15.4.21.66.28,1a7.07,7.07,0,0,1-.52,2.55,7.35,7.35,0,0,1,1.31,4.79c-.53.32-.61-.38-1-.43.1.51-.38.87-.28,1.51.57.57,1.2,1.23,1.86,1.86a3,3,0,0,1,1,1.83,7.88,7.88,0,0,0,.16-2c-.44-.41-.39-1-.84-1.4.47-.4.68.14,1,.19a22.58,22.58,0,0,1,2.37.28,25.58,25.58,0,0,0,3.36.25c.66.08,1.18-.34,1.82-.33s1.29.32,1.83-.25c1.23.2,2.32-.47,3.51-.57.85-.07,1.67-.42,2.53-.58s1.41-.37,2.13-.54a15.93,15.93,0,0,0,2.11-.56c.76-.29,1.55,0,2.22-.32s1.53-.06,2.28-.2c.6-.11,1.08.33,1.69.31s1-.21,1.57.22c.29.24.89-.18,1.27.23,1.08-.08,2,.63,3.07.64a2.23,2.23,0,0,0,1.83-.68v-1.18l-.69-.51c-.48-.3-1,0-1.47.35v.84H69.55c-1.14-1.13-1.17-1.27-.5-3-.52-.07-.63.46-1,.68v1.22H66.77l-.66-.81c-.06-.59.4-1.07.94-1.63-1.08.27-1.55.87-1.84,2.19a19.59,19.59,0,0,0-4.31.59c.44-1.16,1.46-1.66,2.22-2.4a8.64,8.64,0,0,1,2.69-1.61c-.62-.65,0-1.28.09-1.93,1-1.77,2.63-1.73,4.51-1.47l-1,.73V102l.59.63c1.69.4,3.27.61,4.56,1.74A6.09,6.09,0,0,1,76.15,106c.55,1,.76,3.11,0,4.15a6.19,6.19,0,0,1-4.87,2.61s-.07.06-.09.09c.11.23.15.53.32.66.63.47.8,1.32,1.49,1.75h2.79l1.2,1.89H73.73c0,.67.44,1,.81,1.39,1.21.16,2.45-.22,3.62.3l1,1.64H75.61a2.36,2.36,0,0,1,1,1.4h3.23l1.23,1.23v1.48l-.14.11-.18-.82-.29.26h-.7v3.76l.48.48V130l-1,.81a5.29,5.29,0,0,1-2.24.48,1.13,1.13,0,0,0-1.17.87c0,.15-.21.28-.38.48-.67-.55-.43-1.63-1.25-2V129.2c.1-.25.5-.34.54-.7a.18.18,0,0,0,.24-.16s-.06-.09-.08-.08a.19.19,0,0,0-.16.24c-.17,0-.36-.07-.52.1s-.59.58-.87.85V131a4.16,4.16,0,0,0-3.43,1.75l-.5-1c.5-.74.17-1.7.76-2.46l-.25-.13,1.32-1.25a2.42,2.42,0,0,0-1.9,1.42c-.44,1.07-.48,1-1.59,1.7l-.35.23c-.2-.12-.43-.24-.43-.55s.21-.77.83-1.49a4.39,4.39,0,0,1,.43-1.87c.5-1.12,1.51-1.25,2.41-1.54.44-.15,1,.29,1.54.25a2.88,2.88,0,0,0,1.68-.39v-1.79h-2.1l-1,1c-.65,0-1.17.59-1.86.23v-.84a3.49,3.49,0,0,0-1.6-1,5.4,5.4,0,0,1-3.53-2.74,3.18,3.18,0,0,1-.27-2.79c.18-.44.18-.93.33-1.38a1.77,1.77,0,0,0-.36-1.33,4.09,4.09,0,0,0-3.3-1.71,11.44,11.44,0,0,0-4.54,1.07c-2,.82-3.88,2-5.83,3-1.57.78-3.11,1.63-4.68,2.41a22,22,0,0,1-3.2,1.28,4.76,4.76,0,0,0-.94.41c-.29.18-.78.08-.9.55v.85c.22.21.63.22.79.56-.4.44-1,.41-1.51.66s-1.09-.09-1.58-.42c-.68-.45-1.38-.87-2.13-1.34v-1.69a7.36,7.36,0,0,0,2-2.93,3.15,3.15,0,0,0-.48-2.94c-.25-.45-.72-.78-1-1.27-.09-.18-.27-.21-.52-.1v1.78a2.23,2.23,0,0,1,.75,2.21A5,5,0,0,1,35.06,119l-1-1.81-.71,1.47c1.18,2.55,1,3.46.59,4.52L37,125.06a23.25,23.25,0,0,0-2.35,1,10.45,10.45,0,0,1-2.88-1.82,2.21,2.21,0,0,0,.07-1.91,14.64,14.64,0,0,1-.48-2l-1,1.14c.09.58-.22,1.33.28,2-.41.41-.09,1.22-.91,1.46a15.39,15.39,0,0,0,3.3,1.74c-1.11.42-1.92,1.12-3.09.92-.34-.53-1.17-.55-1.51-1.35v-3.46c-.32-.25-.68-.12-1.12-.11v3.11a3.43,3.43,0,0,1-2-1.69c-.18-.38-.27-.86-.13-1,.5-.56.05-1.16.25-1.57l-1-1a7.37,7.37,0,0,0-.65,4,4.43,4.43,0,0,0,1.38,1.93A14.79,14.79,0,0,1,23.06,129H20.7a10.66,10.66,0,0,1,1.77-2.51c-.49-.38-1-.14-1.36-.23-.91.77-1.2,2-2.25,2.75H16.63c-.25-.24-.09-.41.12-.6-.18-.31-.21-.7-.54-.94s-.63,0-.71,0l-.62.37c-.11.65.37,1,.51,1.49A2.74,2.74,0,0,1,14,131.25c-.6.32-1,1-1.66,1.33a2.49,2.49,0,0,1-.37.09c-.27-.41,0-.84-.19-1.28-.68-.18-1-.81-1.32-1.43,0-.62.59-1,.83-1.46a.19.19,0,0,0,.25-.16s-.06-.09-.08-.08a.19.19,0,0,0-.17.24c-1.24.36-1.59,1.19-1.11,2.72H7.6c-.45.55-1.26.63-1.51,1.49L6,132.12l-.26.21v-1.22a4.86,4.86,0,0,0,1.09-2.67l1.18-1c-1.47.16-2,.88-2,2.52l-.74.81c-.46-.54-1.06-.32-1.52-.37-.49.16-.4.66-.72.86-.57-.06-.23-.73-.72-.81.35-.69.34-1.45,1.22-1.48-.24-2,.83-3.29,3.68-3.7-.57-.26-1.13,0-1.53-.13l1.09-1.09a7.16,7.16,0,0,1,3.25.45,5.06,5.06,0,0,0,2,0A26.76,26.76,0,0,0,15,122.89,30.17,30.17,0,0,0,17.91,121a.19.19,0,0,0,.25-.16s-.06-.09-.08-.08a.19.19,0,0,0-.17.24H16.54l-1.69-1.69c.82.19,1.44-.41,2.39-.21L16,118c-.7-.29-1.46.46-2.36.28l-1.42-1.45c.47-.61,1.2-.42,1.82-.47.16-.65-.47-.7-.57-1.12-.78.08-1.56-.16-2.27.33-1.08-.25-1.62-1.18-2.56-2a2.39,2.39,0,0,0,2.11-.68c.13-.17,0-.5,0-.73l-.73-.87a6.27,6.27,0,0,1-2.15.83c-.64-.32-1.78-.32-2.19-1.54-.14-.15-.38,0-.61-.06l-.64-.65v-1.27a1.3,1.3,0,0,0,.9.26c.39-.17,0-.67.37-.92s.71-.12.82-.53l1.06.56.4-.32c.08-.41-.27-.49-.38-.74-.41.52-1,.19-1.28.28-1.57-.57-1.81-1.73-1.62-3.15l.49-.91-.84-.63-.41,0L4.6,102l-.22-.27H6l.42.53c1-.46,1.56-.21,2.64.53a.2.2,0,0,0,.16.25s.09-.06.08-.09A.19.19,0,0,0,9.05,102.74Zm23.83,1.59c-1.22.63-2.51.22-3.77.38a.83.83,0,0,0-.31.75c.32.18.73-.12,1.08.24v1.07c.58.83,1.06.16,1.61,0v-1.18c.72-.15,1.38-.32,1.38-1.21a.2.2,0,0,0,.25-.16s-.06-.09-.08-.08S32.85,104.27,32.88,104.33Zm1.1,2.29a3.82,3.82,0,0,1-1.28,1.66c-.57-.1-.94.47-1.49.3v.83a2.89,2.89,0,0,1-1,1.36h-1.4c-.15-.32-.57-.43-.68-.94.45-.44,1-.93.82-1.77H26.83c-.29.92.48,1.39.75,2a2,2,0,0,1-1.94.67l-1.14-1v-1.21a2.33,2.33,0,0,1-1.77-.55c-1-.8-1-1.93-.95-3.08-.85.43-.27,1.35-.92,1.76.67.34.09,1.06.57,1.36s.32,1,1,1.13a3.55,3.55,0,0,1,1.26.63v.84l1.06,1a13.72,13.72,0,0,0,.59,2.72c-.52.87-.15,1.81-.26,2.57.35.5.81.49,1.13.76.3-.35.71-.3,1.11-.3a6.4,6.4,0,0,1,1.52,0,3,3,0,0,0,1.41-.08,2.7,2.7,0,0,0,.15-2.53.81.81,0,0,1,0-.66c.41-.71.17-1.49.29-2.2.69-.67,1.46-1.26,1.4-2.22a4.28,4.28,0,0,0,2.45-2.26c0-1.67,0-1.67-.46-2.5,0,0-.09.06-.09.1C34,105.6,34,106.11,34,106.62Zm-13.9,6.62c-.58.07-.75.43-1,.68-1.22,1.19-1.37,2.25-.93,4a4.39,4.39,0,0,0,1.06,1.78,2.86,2.86,0,0,1,.88,1.42c.07,1,.67,1.54,1.44,2.26-.05-1.7-.13-3.22.9-4.57a5.31,5.31,0,0,1-.76-1.35c-.52.31-.54,1-.87,1.35h-.48c-.7-.89-1.32-1.77-1-2.89.27-.39.35-.87.73-1.06Zm2.57-9.14c-.09.56.36.74.36.81.35.66.9.5,1.25.7.07.32-.09.43-.26.6.39.22.26.83.77,1s.77-.33,1.11-.39c.18-.44-.08-.87.2-1.29H27c-.34-.19-.1-.63-.38-.81h-3C23.38,104.36,23,104.38,22.65,104.1ZM26.11,100a7.43,7.43,0,0,1,1.53,2,2.12,2.12,0,0,0,1,.81.93.93,0,0,0,1,0L27.58,100Zm3.61.69c.34.62.91,1,1.17,1.54a1.3,1.3,0,0,0,1,.5c.28,0,.46,0,.41-.44-.66-.41-.86-1.28-1.52-1.78A1.94,1.94,0,0,0,29.72,100.7Zm-4.87-.13h-1.4c.38.61.95,1,1.26,1.58s.91.62,1.59.33C25.85,101.81,25.07,101.41,24.85,100.57ZM71.52,128q.2-.14,0-.27Q71.33,127.82,71.52,128Z"></path>
  <path class="cls-1" d="M9.05,67.83c0-.61-.38-.89-.83-1.09-.18-.08-.27-.23-.44-.29s-.27,0-.36-.11c.14-.35.69-.49.47-1.13a1.69,1.69,0,0,0-1-.79A1.77,1.77,0,0,1,8.63,64c1,.09,1,1.47,2,1.63.15.64.81,1.11.76,1.9A26.67,26.67,0,0,0,11.56,64c.48-.29.58.39.95.2a4.6,4.6,0,0,1,.82,1.89,1.06,1.06,0,0,0,.55.87s.06.06.13.12V69a17,17,0,0,0-1.35,2.66c.73,2.06,2.51,3.06,4.17,4.28a10.4,10.4,0,0,1-.58,2.08l.45,1a3.51,3.51,0,0,1,.63-1.45,9.13,9.13,0,0,1,1.16-1.31c.31-.39,1-.46,1-1.13-.42-.35,0-1-.22-1.37l-1,1a5.93,5.93,0,0,1,.63-4.18,2.34,2.34,0,0,0,.19-2.26,5.06,5.06,0,0,1-.06-2.13c.23,0,.45-.06.47.1a1,1,0,0,0,.61.84c.88.33,1.06,1.07,1.18,1.91a2.13,2.13,0,0,0,.76-1.81c-.55-1-2.07-.7-2.5-1.83,0-.3.27-.37.42-.6.62.11,1.32-.2,2,.26a2.81,2.81,0,0,1,1.69-1c.54.15,1.24-.37,2-.72a5.37,5.37,0,0,1,4.71.09,3.68,3.68,0,0,1,.35.15c.14.12.26.26.41.41a2.65,2.65,0,0,1,1.87.45,2,2,0,0,0,1.5.38,12.18,12.18,0,0,1,1.35,0c.13.23.42.29.39.71l-.92.65c-.44-.06-.88.49-1.52.63V68.3l.64.63a.35.35,0,0,0,.15-.34,1.14,1.14,0,0,1,.55-1.13,2.15,2.15,0,0,0,1.19-1.64c.94,1.31.25,2.49-.06,3.71a7.58,7.58,0,0,1,1.36,4.87c-.57.23-.66-.29-.95-.45-.21.46-.63.85-.3,1.64,1.13.83,2.52,1.75,2.78,3.59a8.55,8.55,0,0,0,.13-2l-.78-1.52a.59.59,0,0,1,.78,0,.76.76,0,0,0,.35.14,24.88,24.88,0,0,0,4,.29c.88-.06,1.76,0,2.63,0a36,36,0,0,0,6.09-1c1.31-.28,2.6-.67,3.91-1,.92-.2,1.81-.54,2.73-.74a16.2,16.2,0,0,1,2.49-.34c.92-.06,1.85,0,2.77,0a3,3,0,0,1,1.56.25c.45.24,1.1-.23,1.54.28a20,20,0,0,1,3.68.8,2,2,0,0,0,2-.88c.25-.55-.14-1-.29-1.48-.25-.21-.67.09-.85-.3a2,2,0,0,0-1,.62l0,.87c-.26.25-1.16.1-1.61-.27-.84-.69-.78-1.6.2-2.86-.24-.19-.41-.06-.58.12s-.45.46-.73.73V72.2H66.76A2.59,2.59,0,0,1,66.1,71a2.07,2.07,0,0,1,.57-1.13c-.47,0-1,.21-1.07.63s-.47.86-.29,1.47a12.38,12.38,0,0,0-4.37.45c.18-1,2.56-3,4.6-3.89V67.41a3.5,3.5,0,0,1,1.72-2.23,4,4,0,0,1,2.33-.38c.12.28.47.2.66.38-.9.59-1,1-.52,2.22.64.64,1.51.4,2.25.67a9.64,9.64,0,0,1,3.67,2.2c.46.45.55,1.09,1,1.61-.06,1,.21,2-.36,3-1.79,2.09-2.39,2.29-5.12,3L72.56,80H74.8c1.31.37,1.5,1.41,2.39,2.12-.62.09-.91-.27-1.28-.17a5.84,5.84,0,0,1-1.11,0,2.49,2.49,0,0,0-1.27.14l.94,1.46h3.34c.71.51.89,1.27,1.7,2H75.89l1.4,1.4c.38,0,1,0,1.67,0A1.75,1.75,0,0,1,81,88.37v1c-.57.21-.71-.54-1.29-.33-.15,1,0,2.25-.08,3.46a2.79,2.79,0,0,1,.59,1.85,1.69,1.69,0,0,1-1.36,1.68,5.63,5.63,0,0,1-2.37.28l-1.09,1.15C74.79,97,75,96,74.15,95.75a11.21,11.21,0,0,0,0-1.16c-.05-.38.42-.6.21-1,.25-.07.5.1.6-.19-.19-.18-.36-.16-.6.19-.66-.12-.74.53-1,1.11V96l-1.49.07c-.57.42-1.37.62-1.73,1.36-.28.08-.42-.14-.56-.31a.84.84,0,0,1-.08-.9c.45-.45.13-1,.24-1.31a4.38,4.38,0,0,1,1.94-2.06c-1.26-.15-2.24.74-2.51,2.29a3.43,3.43,0,0,0-1.76,1.19,1.09,1.09,0,0,1-.13-1.7,6.94,6.94,0,0,0,.87-2.32c1.12-1.73,2.75-1.85,4.6-1.24.35-.21.83-.24,1.13-.73V88.94H71.74a4,4,0,0,1-2.35,1.32c-.71-.14-.43-.82-.52-1.26-.7-.71-1.67-.76-2.47-1.2-1.86-1-2.12-1.27-2.93-3.37a1.89,1.89,0,0,1,0-1.56,7.07,7.07,0,0,0,.39-1.5,2.13,2.13,0,0,0-1-2.14c-.4-.3-.75-.76-1.07-.76-.68-.24-1.21.09-1.65-.36a.86.86,0,0,0-.8,0c-.67.4-1.48.19-2.13.55s-1.29.41-1.89.8a15.27,15.27,0,0,1-1.94,1c-2.89,1.41-5.64,3.08-8.56,4.42a22.14,22.14,0,0,1-4.21,1.54c-.21.05-.28.22-.44.31-.23.28,0,.62-.11.92a1.63,1.63,0,0,0,.86.6,4.49,4.49,0,0,1-2.32,1c-.79-1-2.15-1.17-3-2.15V85.7A11,11,0,0,0,37,84.06a5.31,5.31,0,0,0,.8-2.57,3.53,3.53,0,0,0-1.11-2.43c-.23-.3-.45-.72-1-.71a2.4,2.4,0,0,0,.7,2.59v1.17c-.42.61-.53,1.49-1.45,1.83l-.85-1.71-.74,1.45a12.59,12.59,0,0,1,.84,2.21,13.31,13.31,0,0,1,0,2.37c.94.45,1.6,1.36,2.8,1.55-.68.79-1.69.83-2.56,1.35-.74-.76-1.85-1-2.66-1.77a3.15,3.15,0,0,0,.07-2.16,3.86,3.86,0,0,1-.42-1.81L30.41,86.5c.07.44-.23,1.21.17,2-.32.39-.11,1.12-.82,1.35a22.87,22.87,0,0,0,3,2,12.74,12.74,0,0,1-2.24,1c-.87-.21-1.36-.89-2.11-1.14V87.54H27.35V90.8c-.54-.19-.89-.63-1.27-.74-.6-.18-.42-.9-.92-1-.27-.93.46-1.7.2-2.57l-.91-1c-.95,1.31-.69,2.82-.72,4.16a2.24,2.24,0,0,0,1.46,1.5,22.31,22.31,0,0,1-1.25,2,1.88,1.88,0,0,1-1.8,1A5.49,5.49,0,0,1,20.56,94a18,18,0,0,0,1.77-2.59H20.81c-.7.84-1,2.12-2.14,2.66H16.62c-.28-.37.14-.49.2-.78s-.43-.34-.28-.69l-1-.49-.73,1c-.05.42.37.8.59,1.3a3,3,0,0,1-1.64,1.77c-.21,1-1.2,1-1.86,1.53-.27-.38,0-.86-.17-1.3-.81-.14-1-.85-1.33-1.47a3.58,3.58,0,0,1,1.19-1.54c-.63-.25-.82.33-1.2.33-.68,1.16-.7,1.33-.27,2.44-1,.26-1.08.26-1.9-.12-.73.41-1.6.63-2.08,1.44l-.4-.41V95.91l.74-.75A4.63,4.63,0,0,1,7.64,92.6c-.23-.21-.4-.11-.58.07-.36.36-.73.7-1.07,1v1.43l-.36.36a1.36,1.36,0,0,1-1.3-.23A2.79,2.79,0,0,0,3,96.37a2.21,2.21,0,0,1-.61-1c.09-.73.65-1.14,1.11-1.62V92.34a7.46,7.46,0,0,1,2.21-1.8h1.6c0-.43-.32-.26-.46-.25S6.54,90,6.27,90s-.42.62-.84.12c.12-.86,1.1-.7,1.52-1.2a4.38,4.38,0,0,1,2.32.39,10.71,10.71,0,0,1,1.51.37c.52.24,1.14-.23,1.7-.46,1.34-.52,2.45-1.44,3.71-2.07a11.79,11.79,0,0,1,2-1.14c-.55-.5-.93.26-1.59.06-.57-.43-1-1.22-1.89-1.57.32-.41.35-.16.46-.13.59-.28,1.34-.12,1.86-.59a3.5,3.5,0,0,0-1.34-1c-.42.56-1.21.14-2,.46-.75-.24-1.25-1.08-2-1.75.79-.18,1.62.13,2.18-.38L12.77,80c-.52-.13-1.28.73-2.37.1-.27-.42-1.14-.62-1.61-1.28.5-.56,1.4-.18,1.89-.79v-1.2c-.77-.8-1.38-.16-2.19.17H7c-.39-.42-.89-.73-1.31-1.17s-.88-.73-1.33-1.14v-1a1,1,0,0,0,1,.29c.21-.18.06-.43.12-.69l.72-.65c.54-.25,1,.38,1.63.25.29-.2,0-.49.13-.66A.35.35,0,0,0,7.51,72,2.56,2.56,0,0,1,5.8,72c-.66-.18-.8-.77-1.15-1.28A3.33,3.33,0,0,1,5.23,68a4.68,4.68,0,0,0-1.49-.62c.2-.93,1.14-.54,1.55-1.1A3.34,3.34,0,0,0,8,67c.47.2.61.74,1.09.85a.19.19,0,0,0,.16.25S9.3,68,9.29,68A.19.19,0,0,0,9.05,67.83Zm13.7,6.64c.5,0,.92.07,1,.66a1.53,1.53,0,0,0,1.09,1.43,11.91,11.91,0,0,0,.57,3,4,4,0,0,0-.27,2.29l.66.64h3.93l1-.65c-.25-.76.09-1.45-.25-2.11s.37-1.33.18-2.06a1.14,1.14,0,0,1,.16-1.05c.13-.29.85-.14.91-.67a2,2,0,0,1,.59-1.34,3.34,3.34,0,0,0,2.15-2V70.4c-.18-.09-.21-.32-.51-.29a6.86,6.86,0,0,1,0,1.2c-.18.93-.55,1.81-1.57,2a11.8,11.8,0,0,0-1.19.46,1.89,1.89,0,0,1-1.64,2.13c-.32-.51-1.21-.1-1.44-1A1.89,1.89,0,0,0,29,73.15H26.78c0,.4-.18.82.17,1.08.51.38.41.84.31,1.35-.51-.15-.83.35-1.29.29a1.9,1.9,0,0,1-1.43-2.14c-1.08-.46-2.33-.56-2.78-1.87v-1.8C20.71,71,20.62,72.62,22.75,74.47Zm-2.64,11.2c0,1.57.13,1.75,1.36,2.44.09-1.56-.15-3.16.93-4.45-.39-.39-.28-1.12-1.06-1.16-.24.46-.3,1.07-.82,1.38a3.88,3.88,0,0,1-1.19-1.58c-.38-1.26.55-2,1.06-3-.52-.28-.05-.88-.39-1.22-.86.46-1.1.74-2,2.34A5.38,5.38,0,0,0,20.11,85.67ZM31.11,72c.72-.25.18-.94.45-1.31,1.06-.45,1.06-.45,1.56-1.41-.47-.09-.79.37-1.26.27a6.85,6.85,0,0,0-1.36,0H29.13l-.4.4c0,.22-.08.44.05.64.32.21.73-.1,1,.19.07.43-.16.94.47,1.24Zm-8.53-2.6c.26.83,1,1,1.67,1.35l-.33.51c.34.13.31.47.47.74h1.05c.78-.3.33-1,.6-1.34.25-.07.5.08.69-.11a.77.77,0,0,0-.38-1A26.47,26.47,0,0,1,22.58,69.36Zm3.64-4.55,2,3a3.75,3.75,0,0,0,1.33-.08,14,14,0,0,0-2.4-2.93Zm-.94,2.74c.28,0,.61.09.9-.08a8.28,8.28,0,0,0-1.78-2.13c-.28,0-.61-.09-.9.09A8.2,8.2,0,0,0,25.28,67.55Zm7-.1a8.86,8.86,0,0,0-1.85-2.13c-.24.12-.58-.11-.86.12a8.65,8.65,0,0,0,1.85,2.13C31.67,67.45,32,67.69,32.29,67.45Z"></path>
  <path class="cls-1" d="M74.71,58.41c-.17,0-.36-.07-.52.1s-.59.57-.87.84v1.81c-1.35-.1-2.62.08-3.41,1.48-.28-.61-.77-1-.21-1.68.16-.19,0-.63,0-1,.52-.7.6-1.75,1.84-2-1.48-.11-2.12.55-2.41,2.25-.18.23-.43.08-.9.18l-.91,1.14c-.08-.47-.44-.7-.39-1.11a2.32,2.32,0,0,1,.84-1.31,3.13,3.13,0,0,1,1.91-3.22h3.77l.36-.36V53.73H72.09A3.69,3.69,0,0,1,69,55.07c-.22-.3-.06-.63-.1-.84-.35-.78-1.07-.87-1.68-1.07a5.72,5.72,0,0,1-3.79-3.68,3.19,3.19,0,0,1,0-1.86,3.06,3.06,0,0,0,.16-2.48.74.74,0,0,1,0-.15,3.9,3.9,0,0,1-.28-.29A4.44,4.44,0,0,0,59,43.22a10,10,0,0,0-3.19,1c-1.53.76-3.08,1.5-4.58,2.32-2.17,1.19-4.4,2.28-6.63,3.37a22.59,22.59,0,0,1-3.2,1.3c-.49.15-.84.44-1.3.54v1.06c.15.29.48.34.76.46a6.12,6.12,0,0,1-2.09.94l-3.11-1.94v-1.4a17.08,17.08,0,0,0,2-3.3A3.26,3.26,0,0,0,37,44.39c-.28-.39-.78-.62-.87-1.2-.82.46-.33,1.21-.5,1.78a2.13,2.13,0,0,1,.79,1.11c.29,1.22-.4,2-1.36,2.73-.44-.42-.38-1.11-.91-1.42-.54.14-.36.8-.82,1a8.54,8.54,0,0,1,.9,4.83,15.4,15.4,0,0,0,3,1.69c-1.17.31-1.92,1.28-3.15.91a8.61,8.61,0,0,0-2.34-1.44c.81-1.4-.13-2.65-.3-3.95l-1,1.06c.07.49-.24,1.23.26,1.88-.34.49-.2,1.22-.93,1.57l3,1.74a5.68,5.68,0,0,1-2.18,1.06,4.51,4.51,0,0,1-2.06-1.47V52.76s-.06-.11-.1-.11l-1-.07v3.15A3.48,3.48,0,0,1,25.27,54c-.17-.37-.26-.85-.12-1,.49-.56.05-1.16.24-1.56l-1-1a7.52,7.52,0,0,0-.64,3.94,4.45,4.45,0,0,0,1.38,2l-1.72,2.59H20.68l1.65-2.4H20.76A11.87,11.87,0,0,1,18.86,59h-2.2c-.3-.29-.07-.48.13-.67-.31-.21-.22-.68-.56-.87s-.74-.15-1.32.25a2.43,2.43,0,0,0,.51,1.83C15,61,13.28,61.35,12.57,62.57H12c-.31-.3,0-.71-.22-1.09-.49-.32-1.18-.53-1.25-1.42a2.57,2.57,0,0,1,1-1.67c-1.52.39-1.89,1.29-1.32,2.72a13,13,0,0,1-2.08.06,4.51,4.51,0,0,0-2,1.39l-.4-.4V60.94l.87-.76c-.25-.58.23-1,.34-1.8.07-.18.61-.32.72-.8a.2.2,0,0,0,.25-.16.14.14,0,0,0-.08-.09.2.2,0,0,0-.17.25H7a2.24,2.24,0,0,0-1,2.34l-.73.74c-.41-.08-.77-.48-1.51-.16L3,61.31A1.76,1.76,0,0,1,2.4,60L3.47,59V57.69c.71-1.84,2.16-2.17,3.62-2.59H5.46c.23-.65.81-.75,1.24-1.1a7.78,7.78,0,0,1,3,.39,3.93,3.93,0,0,0,3.55-.52c1-.69,2.07-1.22,3.11-1.83.53-.32,1.05-.66,1.71-1.07h-1.6l-1.6-1.61a6.78,6.78,0,0,0,2.27-.51l-1-.94c-.84-.27-1.6.51-2.56.16a3.1,3.1,0,0,0-.87-.63,4.38,4.38,0,0,1-.86-.83l2.24-.5c.08-.74-.7-.6-.94-1-.89-.28-1.65.5-2.62.14L8.75,43.57c.43-.25.89,0,1.3-.15l.59-.59a1.9,1.9,0,0,0,0-.92l-.29-.29a.64.64,0,0,0-.23-.1,1.94,1.94,0,0,0-1.41.27A2,2,0,0,1,7.22,42a3.14,3.14,0,0,1-1.55-1.55s-.06-.07-.1-.08c-.21,0-.46.09-.65-.11l-.58-.59v-.84c.3-.3.71,0,1-.18s-.19-.83.46-1a2.61,2.61,0,0,1,1.93.23.37.37,0,0,0,.19-.4c0-.13,0-.26,0-.44h-2L4.61,35.83c.07-.91-.25-1.94.54-2.76-.32-.45-.84-.57-1.45-.84l.9-.43-.19-.23h1.5l.23.55A4.41,4.41,0,0,1,9,32.57c.08.25-.1.5.19.61.19-.19.16-.37-.19-.61a.51.51,0,0,0-.27-.63,1.79,1.79,0,0,0-1.31-.39c-.23-.71.92-.83.51-1.39-.1-.58-.77-.39-.89-.95l1-.52c.62.35,1.35.49,1.55,1.32a.66.66,0,0,0,.38.39c1.05.37,1.27,1.23,1.32,2.38a1.67,1.67,0,0,0,.22-1.11.86.86,0,0,0-.26-.84c.4-.25.23-.66.26-1s0-.64,0-1a2,2,0,0,1,1.67,2c0,.57.73.77.71,1.13.52,1.94-.75,3.15-1.33,4.75A12.31,12.31,0,0,0,17,41c-.06.49-.56.83-.5,1.37s0,1.08.09,1.63a4,4,0,0,1,1.2-2c.62-.55,1.18-1.16,1.84-1.82-.42-.38-.38-.92-.57-1.53l-.81,1.1a6.62,6.62,0,0,1,1-4.89c.11-1.17-.59-2.47-.2-3.83.22-.08.46-.14.46.21s.47.37.3.71c.9.49.93.52,1.41,1.64l.76-.77v-.92a1.68,1.68,0,0,0-1.1-.61,5.47,5.47,0,0,1-1-.37c-.39-.13-.47-.53-.37-1h2.49c1.14-1.18,2.84-1,4-2,1.21.06,2.56-.35,3.65.15,1.27.59,2.77.74,3.93,1.84h2.46c.23.46-.32.63-.27,1a8.87,8.87,0,0,0-2.13,1v1.22c.33.24.25.78.7.91.22-.28.06-.62.1-.89.58-.82,1.63-1.23,1.8-2.37.13.61.7,1.2.39,1.78s0,1.34-.48,1.92a7.61,7.61,0,0,1,1.3,5.07c-.28.07-.35-.21-.47-.34s-.23-.36-.44-.48c-.08.58-.42,1-.5,1.44,1,1.29,2.54,2.14,3,4a9,9,0,0,0,.1-2,4.5,4.5,0,0,0-.86-1.53c.31-.54.45,0,.64.06a35.78,35.78,0,0,0,6.7.54c.6,0,1.1-.29,1.68-.32s1.2.3,1.69-.26c1.23.19,2.32-.46,3.5-.58a17.19,17.19,0,0,0,2.65-.59c1.47-.4,2.93-.76,4.41-1.08,2.09-.46,4.18-.09,6.26-.24,1.15.4,2.39.39,3.54.79a2.9,2.9,0,0,0,.85.31c.69,0,1.38,0,2.06,0q.36-.34.69-.69c0-.37,0-.73,0-1.11l-.7-.68h-.82c-.22.27-.66.42-.68.8a.83.83,0,0,1-.52.85,1.89,1.89,0,0,1-1.38-1c-.27-.49-.7-1.09-.07-1.69.07-.06,0-.27,0-.4a.2.2,0,0,0,.25-.17s-.06-.09-.08-.08a.2.2,0,0,0-.17.25c-.36-.06-.62.1-.86.55v1c-.28.26-.47.58-1.1.18l-.76-.88a3.54,3.54,0,0,1,.68-1.65,2.44,2.44,0,0,0-1.65,2.12l-4.46.67a14.84,14.84,0,0,1,5.06-4,1.35,1.35,0,0,1-.24-1c0-.35.55-.56.24-.94L67,30.27a5.44,5.44,0,0,1,3-.34c.09.49-.32.59-.51,1v1c.22.24.42.6.84.71s1.09.26,1.63.42a6.84,6.84,0,0,1,4.61,3.77.28.28,0,0,0,.1.09v2.14a4.72,4.72,0,0,1-2.13,2.51c-1,.42-1.83,1.24-3.12,1,0,1.17.77,1.78,1.48,2.51h2.46A6,6,0,0,1,76.89,47H73.71a1.82,1.82,0,0,0,.94,1.4H77.6a5.75,5.75,0,0,1,1.55,1.93H75.84a2.65,2.65,0,0,0,1,1.38h2.58A4.12,4.12,0,0,1,81,53v1.55l-1.25-.64a35.7,35.7,0,0,0-.1,3.83l.54.54v1.66a3.65,3.65,0,0,1-1.68,1.27c-.26,0-.72,0-1.18,0s-.71.61-1.12.32c-.49.27-.35.86-.91,1-.5-.08-.19-.75-.48-1s-.35-.72-.67-1a2.71,2.71,0,0,1,.52-2.11.19.19,0,0,0,.24-.16s-.06-.09-.08-.09A.2.2,0,0,0,74.71,58.41Zm-53-21.53V34.82c-.46.57-.47,1.24-.81,1.77.1.11.26.21.26.31a2.78,2.78,0,0,0,2,2.67.81.81,0,0,1,.57.8,2.54,2.54,0,0,0,.35.82c.14.32.57.21.65.34l.58,2.83c-.44.84-.1,1.75-.24,2.62.72.35,1.23,1,2.11.4a1.43,1.43,0,0,1,1.32,0c.73.52,1.24.1,1.83-.15a2.62,2.62,0,0,0,0-2.53.77.77,0,0,1,0-.68c.45-.66.17-1.4.27-2.1.65-.66,1.44-1.24,1.4-2.27a3.57,3.57,0,0,0,2.46-2.14c0-1.8,0-1.8-.53-2.64v1.67c-.62,1.23-1.39,2-2.78,2a2.31,2.31,0,0,1-1,2.17H29L28.16,40c.76-1.25.76-1.25.76-1.77H26.8c-.12.8.41,1.25.74,1.72l-.59.7H25.26a2.51,2.51,0,0,1-.71-2.25c-.92.22-1.48-.39-2.17-.6C22.39,37.38,22,37.21,21.74,36.88ZM20.53,49a3.51,3.51,0,0,1-1.2-3.24c.42-.21.46-.73.81-1.08a4.88,4.88,0,0,0-.16-1.6,7,7,0,0,0-2.07,2.47v2.09a12.83,12.83,0,0,0,2.24,3.23c-.2.81.42,1.35.7,2,.29-.19.35.19.68.21-.06-1.55-.13-3.12.85-4.38l-.74-1.39C21.1,47.76,21.13,48.5,20.53,49Zm8.59-14.38c-.36.3-.58.61-.29,1.06a.76.76,0,0,1,1-.14v1c.4.72.9.49,1.16.49.84-.46.29-1.13.61-1.6l.66-.07c.25-.44.88-.62.91-1.43l-.77.66ZM24,36.09c.29.29.29.78.69,1,.44,0,.93.14,1.26-.5v-1c.36-.25.78.07,1.06-.2l-.34-.7c-1.32-.18-2.68.23-4-.33a2.24,2.24,0,0,0,.6,1.05c.31.23.73-.1,1,.14S24.26,35.89,24,36.09Zm5.63-3.37a9.64,9.64,0,0,1-1.37-1.82c-.44-1-1.14-1-2.22-1,1.16.94,1.5,2.27,2.59,3.07C28.9,32.82,29.23,33.05,29.64,32.72Zm2.84-.17c-.55-.87-1.38-1.29-1.6-2.08H29.55c.36.62.93,1,1.25,1.57A1.4,1.4,0,0,0,32.48,32.55Zm-6.26.06a7.92,7.92,0,0,0-1.81-2.21c-.37.09-.7-.12-1,.2.81.54,1,1.6,1.82,2Z"></path>
  <path class="cls-1" d="M106.06,1.64h2.4V159h-2.4Z"></path>
  <path d="M150.85,106.59h-3v-1.1c0-3.65,0-7.29,0-10.94,0-1,.51-1.92.3-2.93,0-.17.06-.37-.14-.51-.89,2.31-1.47,4.72-2.28,7.06-.5,1.44-1,2.92-1.38,4.41-.27,1-.63,2-.88,3-.1.4-.4.67-.43,1.07h-1.67c-.52-.35-.5-1-.69-1.49-.8-2.17-1.36-4.42-2.11-6.6-.33-1-.61-2-.94-2.94s-.57-2-.84-3a8.55,8.55,0,0,1-.4-1.24,4.16,4.16,0,0,0-.15,1.6,15.32,15.32,0,0,0,0,1.66c.05.52-.22,1.09.22,1.57.1.11.05.35.05.53v9.6c-1,.55-2,.15-3,.31v-21h3.76a26.24,26.24,0,0,1,.88,2.82c.23,1.15.61,2.25.91,3.38.21.81.55,1.64.72,2.45s.46,1.58.66,2.37a27.87,27.87,0,0,0,1.15,3.81c.23.57,0,1.27.63,1.76.32-1.14.62-2.27.94-3.39s.55-2.09.88-3.11c.26-.81.55-1.64.73-2.45s.49-1.57.66-2.38a22.11,22.11,0,0,1,.84-3c.21-.57.31-1.17.47-1.74.08-.25.26-.36.4-.56h3.73Z"></path>
  <path class="cls-1" d="M43,93.88c-.78,0-1,.44-1.22,1-.35.75-.5,1-1.25,1.22-.54.18-.7.7-1.19.88a.69.69,0,0,1-.6-.74,1.41,1.41,0,0,1,.63-1.37c.53-.21.65-.66,1-1s.25-.64.49-.75a1,1,0,0,0,.68-.59,2.22,2.22,0,0,0-1.83,1.22A2.34,2.34,0,0,1,38.3,94.9c-.41.15-.58.55-.95.64a.82.82,0,0,1-.62-.55,2.68,2.68,0,0,1,1.64-2.06,3.24,3.24,0,0,1,2.32-2.83,3.67,3.67,0,0,1,2.24.08,9,9,0,0,0,3,.66,1.79,1.79,0,0,0,1.43-.57c.34-.41.84-.65,1-1.24s.79-.4,1.05-.81c-.15-.35-.56-.21-.65-.13-.59.51-1.2.12-2.06.27,1-1.1,1.15-2.28,1.72-3.28A6.92,6.92,0,0,1,52.27,82,17.66,17.66,0,0,1,55,81.46a7.31,7.31,0,0,1,1.65-.38,1.25,1.25,0,0,0,.46-1.29A3.33,3.33,0,0,1,60.5,79a3.23,3.23,0,0,1,1.93,1,2.12,2.12,0,0,1,.6,1.87,5.42,5.42,0,0,0-1.58,1,2.51,2.51,0,0,0-.78,1.76c.37.59.13,1.34.2,2.08L59.55,88a14.89,14.89,0,0,1-.72-3c-.55.19-.65.77-1,1.2-.28,1.09.57,2.14.07,3.56-.18.29-.95.52-1,1.54l-.79-3.21L55,89.25A9.49,9.49,0,0,0,55.57,92a3.57,3.57,0,0,1-.75,1.14c-.37.31-.69.68-1.13,1.12V92.64c-.35-.14-.24-.51-.4-.66-1.08.76-2.15,1.54-2.43,2.92-.64.1-.88.78-1.47.88H48.2c-.25-.36.06-.51.23-.7A3.49,3.49,0,0,1,48,93.83a2.23,2.23,0,0,0-.71,1.58l-.93.94c-.24.07-.5-.1-.68.12a.58.58,0,0,1-.74.14,2.28,2.28,0,0,0-2.26.09,1,1,0,0,1-.62.77c0-.75,0-1.52,0-2.28A4.3,4.3,0,0,1,43,93.88s.12,0,.14-.17-.06-.09-.08-.08S42.82,93.74,43,93.88Z"></path>
  <path class="cls-1" d="M42.29,129.34c-.49.25-.92.56-.83,1.23-.8.48-1.78.7-2.34,1.55l-.42-.42v-1.14a18.17,18.17,0,0,0,2.41-2.86c.25-.07.5.1.61-.19-.19-.19-.37-.16-.61.19-1,.09-1.57.82-2,1.89-.87-.11-1.42.54-2,1.17-.06-.42-.43-.64-.38-1a2.47,2.47,0,0,1,1.66-1.78c-.12-1,.58-1.5,1.16-2.11a3.88,3.88,0,0,1,2-.89,3.22,3.22,0,0,1,1.87.44c.77.31,1.63.18,2.35.63.81-.39,1.89-.35,2.36-1.28.28-.57.83-.91,1.09-1.48a.2.2,0,0,0,.25-.16.14.14,0,0,0-.09-.09.2.2,0,0,0-.16.25H47c.36-1,1-1.67,1.11-2.65a6.9,6.9,0,0,1,4.64-3.74c.89-.21,1.79-.29,2.69-.49a3,3,0,0,0,1.77-1c.07-.36-.19-.4-.23-.57a2.12,2.12,0,0,1,1.79-.68c.74,0,1.48,0,2.07,0,1.2.56,2.34,1.05,2.2,2.68a5.22,5.22,0,0,0-2.46,2.85.61.61,0,0,0,.25.7v1.28a3.86,3.86,0,0,1-1.31,1.64,16.18,16.18,0,0,1-.63-3.17L57.8,121.3c-.15,1.07.58,2.23.22,3.47L56.81,126c-.44-.92-.34-2-.78-3l-1,1.09c.09.36-.23.93.16,1.42s-.26,1.05.42,1.25a7,7,0,0,1-1.87,2.36c-.28-.76.2-1.67-.58-2.21-.21.21-.45.49-.73.73s-.57.39-.92.63a3,3,0,0,1-1.93,2.43H48.2c-.27-.37.13-.49.2-.76-.25-.35-.26-.88-.75-1.11-.2,2.32-2.15,3.31-3.8,2.46-.77,0-1.19.64-1.83,1.23a8.37,8.37,0,0,1,.27-3.16c.19,0,.29-.09.28-.28a.2.2,0,0,0,.25-.17.16.16,0,0,0-.08-.08.2.2,0,0,0-.17.25C42.38,129.05,42.29,129.15,42.29,129.34Z"></path>
  <path class="cls-1" d="M41.46,57.58c-.8,0-1.52.17-1.74,1.06a1.71,1.71,0,0,1-1.18,1.13,3.69,3.69,0,0,0-1.4.89c-.06-.41-.43-.62-.39-1,.59-1.31.63-1.34,1.67-1.54A2,2,0,0,1,39,56.31a3.78,3.78,0,0,1,1.47-1.15,9.15,9.15,0,0,1,4.64.65c1,.39,1.74-.3,2.54-.69a1.09,1.09,0,0,0,.39-.38,3.07,3.07,0,0,1,2.05-1.68c-.82-.33-1.19.22-1.69.11a7,7,0,0,0-1.46,0,7.07,7.07,0,0,0,1.34-2.59c.85-2.22,2.25-3,4.76-3.79.88-.27,1.8-.26,2.69-.5a3.72,3.72,0,0,1,1.12-.34c.22-.17.08-.55.39-.66-.06-.17-.31-.21-.26-.44.16-.76,1-.4,1.37-.83.93.11,1.88-.17,2.81.26,1.16.54,2.2,1.05,1.88,2.69-.43.54-1.19.54-1.65,1.06s-.41,1.23-.84,1.78c.5.62.24,1.37.32,2.1l-1.32,1.22a14.06,14.06,0,0,1-.7-2.88l-1.06,1.06c-.18,1,.61,2.12.19,3.48l-1.17,1.09c-.43-.89-.36-2-.73-2.88l-1,1.07A8.51,8.51,0,0,0,55.54,57l-1.85,1.8v-1.3a.7.7,0,0,1-.33-.77c-.73.51-1.06,1.29-1.86,1.51a2.89,2.89,0,0,1-2,2.39H48.21c-.3-.36.11-.49.18-.74a2.42,2.42,0,0,0-.89-1.27c.25.94-.28,1.53-.57,2.24-.28.13-.64.21-.82.66a7.1,7.1,0,0,1-2.34-.23c-.18,0-.36.48-.74.1l-1,1.19V59.86c.11-.22.64-.37.49-.89a.2.2,0,0,0,.25-.17s-.06-.09-.08-.08a.2.2,0,0,0-.17.25c-.49.19-.72.66-1.11,1,.07.46,0,.89-.51,1A3.82,3.82,0,0,0,39.09,62l-.39-.4V60.51c.4-.58,1.07-.92,1.39-1.6S41,58,41.46,57.58a.2.2,0,0,0,.25-.16.14.14,0,0,0-.08-.09A.2.2,0,0,0,41.46,57.58Z"></path>
  <path d="M171.64,100.74v-11h3.05v16.78h-2.87c-.89-1.44-1.71-3-2.57-4.52-.68-1.23-1.41-2.45-2-3.73-.5-1-1.13-2-1.73-3.08-.07.25,0,0-.11.09s-.08.07-.08.1c0,3.69,0,7.38,0,11.18-1-.08-2,.27-3-.25V89.77h3.13a35.12,35.12,0,0,1,2.24,3.87c.8,1.41,1.67,2.81,2.34,4.29C170.43,98.91,171.24,99.69,171.64,100.74Z"></path>
  <path d="M369.71,98.47a3.36,3.36,0,0,1,2.32,2.94,25.8,25.8,0,0,1,.23,3.91c0,.3-.1.65.27.87l-.38.4h-3c.25-.92-.36-1.71-.26-2.63s0-1.84,0-2.75c-.37-.15-.23-.56-.5-.79a2.35,2.35,0,0,0-1.64-.73c-.91,0-1.83,0-2.84,0v6.9h-3V89.72c2.28,0,4.55-.17,6.78,0s4.17,1.5,4.25,4.29c0,.6,0,1.2,0,1.8C370.84,97.94,370.87,97.73,369.71,98.47Zm-.77-2.81V93.74a3.82,3.82,0,0,0-1.16-1.42c-1.32-.58-2.57-.32-3.84-.4,0,1.94-.05,3.75.06,5.56a10.15,10.15,0,0,0,2.29,0,5,5,0,0,0,2-.62A2.53,2.53,0,0,1,368.94,95.66Z"></path>
  <path d="M216.84,99.69v6.89h-3V89.72c2.4,0,4.8-.06,7.19,0a3.1,3.1,0,0,1,2.21,1c.41.44.85.85,1.32,1.32,0,1.13,1.06,2.21.3,3.46.09,1.46-1.22,2-1.91,2.93a4,4,0,0,1,2.19,3.64c0,.46,0,.92,0,1.38a5.77,5.77,0,0,0,.45,3.11h-3.14l-.36-.38v-2.72c0-.55.18-1.2,0-1.64s0-1.09-.51-1.45l-1.34-.69Zm5-6.21c-.67-1.14-1.05-1.51-2.79-1.54-.73,0-1.45,0-2.14,0v5.55a13.22,13.22,0,0,1,2,0c.71.11,1.26-.52,1.91-.3C222.23,96.23,221.73,94.77,221.83,93.48Z"></path>
  <path d="M291.51,104.4c.58,0,1.18,0,1.78,0s1-.54,1.42-.57c1.21-1,.88-2.56,1.43-3.82h2.64a5.73,5.73,0,0,1-.75,4,5.33,5.33,0,0,1-3.9,2.6,9,9,0,0,1-1.69.31,9.25,9.25,0,0,1-3-.75,5.91,5.91,0,0,1-2.5-2.38,7.22,7.22,0,0,1-1.12-4.11c0-2.72,0-5.44,0-8.16a7,7,0,0,1,3.87-5.84c.22-.1.57,0,.68-.37.68-.17,1.46.27,2.06-.36a1.53,1.53,0,0,0,1.16.34,5.06,5.06,0,0,1,4.65,2.95,5.32,5.32,0,0,1,.54,3.65h-2.6c-.49-.83-.27-1.9-.83-2.79a3.23,3.23,0,0,0-3.69-1.44c-.27.1-.53,0-.76.17a6.32,6.32,0,0,1-.69.68,3.63,3.63,0,0,0-1.31,3c-.08,2.91,0,5.81,0,8.72a6.72,6.72,0,0,0,1.19,3.25C290.43,104,291.09,104,291.51,104.4Z"></path>
  <path class="cls-1" d="M65,102.49v.68A13.36,13.36,0,0,0,60.83,106a3.76,3.76,0,0,1-2,.81c-.76.19-1.48.45-2.23.65-1.61.45-3.22.92-4.83,1.39a27.4,27.4,0,0,1-3.94.88,26.92,26.92,0,0,1-3.35.22,7.53,7.53,0,0,1-3-.73,5.07,5.07,0,0,1-2.19-2.11c-.19-.29-.34-.6-.56-1a4.17,4.17,0,0,0,0-.86,2.63,2.63,0,0,1,.58-2,5.62,5.62,0,0,1,3.59-2.52,8.33,8.33,0,0,1,2.52-.21,13.8,13.8,0,0,1,2.92.62,2.88,2.88,0,0,0,.9.18c1.06,0,2.12,0,3.18,0a2,2,0,0,0,.55,0c.14,0,.26-.16.58-.37-.58,1.5-1.88,1.86-2.82,2.57a10,10,0,0,1-3.26,1.14c-.28-.26-.07-.61-.16-1l-1.11-1a.87.87,0,0,0-.58.12c.31.2.77.24.81.53s.42.49.37.7a2.46,2.46,0,0,1-1,1.66H43.67l.29-.47c-.07-.44-.52-.57-.68-.88-.4,0-.77-.08-1,.34v1.53a3.67,3.67,0,0,0,2.5.91,13.14,13.14,0,0,1,1.66,0,11.87,11.87,0,0,0,4-.66c3-.88,6.09-1.72,9-2.9,1.4-.11,2.64-.88,4.06-.92A5.65,5.65,0,0,1,65,102.49Z"></path>
  <path class="cls-1" d="M45.89,32.82a4.82,4.82,0,0,1,.85,1.24,1.69,1.69,0,0,1-.85,1.45,2.66,2.66,0,0,1-2.13.4c-.36-.38.3-.51.14-1l-.78-.51c-.24-.16-.53-.1-.78.29v1.45a2.53,2.53,0,0,0,1.91.94c.73,0,1.45.54,2.18.12s1.55.19,2.19-.42c3-.3,5.62-1.56,8.42-2.39,1.78-.52,3.54-1.09,5.33-1.54.71-.17,1.53.05,2.13-.6l.64.67a24.79,24.79,0,0,0-5,3.57,13.3,13.3,0,0,0-2.87.68c-2.49.67-4.9,1.61-7.43,2.13a21.56,21.56,0,0,1-3,.51,20,20,0,0,1-3.19,0,5.53,5.53,0,0,1-3.81-1.76c-1.51-1.79-1.83-3.61,0-5.64a5.29,5.29,0,0,1,3.42-1.77c.65-.08,1.39-.47,1.92-.13s1.41-.2,1.9.45c.78-.18,1.47.37,2.24.29a1.14,1.14,0,0,1,.76.17,1.55,1.55,0,0,0,1.45,0c.59-.36,1.14-.09,1.73-.15a10.22,10.22,0,0,1-5.91,3.31c-.26-.76-.22-1.62-1.51-1.81-.2,0-.12.1-.11.09s.42.17.37-.11S45.83,32.58,45.89,32.82Z"></path>
  <path class="cls-1" d="M53.5,66.17a9.32,9.32,0,0,1-6.22,3.38A2.56,2.56,0,0,0,47,68.21l-.87-.41c-.18.11-.2.18-.13.24.47.32.53.88.8,1.21-.42,1.8-1.7,1.68-3,1.6-.31-.31,0-.47.17-.66a.62.62,0,0,1-.28-.64H42.33v1.36l1,.92a4.41,4.41,0,0,0,2.67.43A2.85,2.85,0,0,0,47.53,72c.44-.24,1.09.23,1.54-.28,1.34.07,2.52-.6,3.79-.88s2.39-.95,3.62-1.25c2.22-.52,4.31-1.51,6.6-1.77A2.8,2.8,0,0,1,65,67.58a.46.46,0,0,1-.22.66A18.39,18.39,0,0,0,60.65,71a5,5,0,0,1-2.26.92c-1.77.4-3.46,1-5.2,1.51-.95.27-1.91.51-2.87.74a19.78,19.78,0,0,1-3.77.62,5,5,0,0,1-2.28,0c-.67-.26-1.48,0-2.23-.31A5.46,5.46,0,0,1,38.72,71a4.46,4.46,0,0,1,2-4.33,8.88,8.88,0,0,1,5.51-1.09c1,.51,2.24.28,3.25.84,1.11-.15,2.26.3,3.35-.27C52.91,66.11,53.12,66.17,53.5,66.17Z"></path>
  <path d="M261.72,98.06c0,.74,0,1.48,0,2.21a6.6,6.6,0,0,1-3.33,6c-.26.18-.53,0-.76.18-.55.41-1.3.1-1.88.48a.55.55,0,0,1-.53,0c-.75-.49-1.74-.17-2.47-.76-.43-.35-1-.54-1.41-.9a6.18,6.18,0,0,1-1.81-3.12,9.74,9.74,0,0,1-.29-2.8c0-1.19-.05-2.4,0-3.59a6.45,6.45,0,0,1,4.81-6.18,5.92,5.92,0,0,1,4,.28,5.62,5.62,0,0,1,2.84,2.64,5.77,5.77,0,0,1,.85,3.12C261.66,96.39,261.72,97.23,261.72,98.06Zm-5.2-6.13H255a2.07,2.07,0,0,0-1.88,1.19,6.55,6.55,0,0,0-.77,3,29.66,29.66,0,0,0,0,4,5.09,5.09,0,0,0,1.82,4c.18,0,.34-.06.45,0a2.23,2.23,0,0,0,2.86-.56,4,4,0,0,0,1.23-2.95c0-1.7,0-3.4,0-5.11A3.66,3.66,0,0,0,256.52,91.93Z"></path>
  <path d="M352.67,106.56c-.6.1-1.18,0-1.73.31a.69.69,0,0,1-.77-.06c-.28-.29-.6-.17-.9-.19a5.29,5.29,0,0,1-3.83-2.07,5.41,5.41,0,0,1-1.14-3.38c-.06-3.78,0-7.56,0-11.39h3.05v9.81c0,2,0,2,1,4,1.46.84,1.66.87,3.78.54L353.3,103a8,8,0,0,0,.4-3.49c0-3.23,0-6.45,0-9.73h3.05v11.89a4.27,4.27,0,0,1-1.28,3.07A7.94,7.94,0,0,1,352.67,106.56Z"></path>
  <path d="M311.63,89.74h3V91.1c0,3.37,0,6.74,0,10.1a5.54,5.54,0,0,1-3.9,5.18,7.46,7.46,0,0,0-2.13.52c-2-.33-4.06-.57-5.36-2.4a5.87,5.87,0,0,1-.86-1.86,9.86,9.86,0,0,1-.23-2.53c0-3.13,0-6.27,0-9.4v-1h3.05V91.1c0,3.23,0,6.46,0,9.68a4.35,4.35,0,0,0,.23,1.42,2.41,2.41,0,0,0,.94,1.53,3,3,0,0,0,1.93.68,5.75,5.75,0,0,1,.83,0,4.65,4.65,0,0,0,2.48-2.42Z"></path>
  <path d="M197.44,100.67v1.52a4.18,4.18,0,0,1-3.17,4.16,3.76,3.76,0,0,1-1.55.27c-.49,0-.93.53-1.39.26-.65-.39-1.35-.1-1.82-.27a6.12,6.12,0,0,1-3.7-3c.37-.73-.85-1.52.11-2.26h2.55c.25,1.18.46,2.37,1.92,2.75s1.5.4,3.37-.35c.27-.73.86-1.36.6-2.22-.54-1.57-2-2-3.33-2.41a12.46,12.46,0,0,1-3.47-1.66,3.53,3.53,0,0,1-1.46-2.58,12.54,12.54,0,0,1,0-1.94,1,1,0,0,0,.14-.22A4.58,4.58,0,0,1,190,89.57a10.09,10.09,0,0,1,3.71.12c2.48.92,2.33,1.1,3.17,2.6.1.18,0,.48.31.54v1.88h-3a2.87,2.87,0,0,0-1.31-2.77h-2.42a2.88,2.88,0,0,0-1.08,3.45c.16.67,1.26,1,2.23,1.21s1.86.66,2.78,1a4.48,4.48,0,0,1,2.83,2.77C197.21,100.48,197.35,100.57,197.44,100.67Z"></path>
  <path d="M133.49,54c2.12,0,4.19-.06,6.26,0a7.14,7.14,0,0,1,2.67.57,4.79,4.79,0,0,1,2.65,3.13,9.67,9.67,0,0,1,.31,2.23,6.69,6.69,0,0,1-1.44,3.84c-.25.38-.89.52-1.12,1.08a4.36,4.36,0,0,1,2,2.32,9.64,9.64,0,0,1,.49,2.42c.06.87,0,1.75,0,2.63a3,3,0,0,0,.83,2.43s0,.17,0,.32h-2.09a5,5,0,0,1-.67-2.8c.05-.73-.07-1.48,0-2.21a6.9,6.9,0,0,0-.36-2.23,2.24,2.24,0,0,0-1.33-1.56,4.63,4.63,0,0,0-1.85-.56c-1.47,0-3,0-4.47,0V75a13.93,13.93,0,0,1-1.94.09Zm1.91,10h4.53a3.4,3.4,0,0,0,3.23-2.39c.51-1.3.11-2.52,0-3.78-.49-.33-.49-1-1-1.32a6.8,6.8,0,0,0-2.43-.79c-1.4-.12-2.82,0-4.26,0Z"></path>
  <path d="M376.17,106.57V89.76h10.16v2.16h-7.09v4.67c1.94.13,3.95,0,6,.08v2.16h-6v5.28h7.14v2.46Z"></path>
  <path d="M352.55,75h-2.09a18.4,18.4,0,0,0-1.6-3,7.69,7.69,0,0,1-.74-1.35,4.78,4.78,0,0,0-.83-1.31c-1.19-1.91-2.17-3.94-3.47-5.77a12.81,12.81,0,0,1-.89-1.87V75H341V58.17h1.48A7.49,7.49,0,0,1,344,60.45c1.11,1.75,2.07,3.58,3.15,5.34.52.84,1,1.74,1.52,2.57a9.45,9.45,0,0,1,1.44,2.58c.06.19.26.33.52.65V58.17h1.58l.34.33Z"></path>
  <path d="M194.41,75V58.13h5.1c.59.42,1.33.24,2,.51a8.89,8.89,0,0,1,2.28,1.81c.88,3.48-.08,5.08-1.63,5.85.18.34.57.38.84.59a4.64,4.64,0,0,1,1.23,5.64,4.06,4.06,0,0,1-3.75,2.5C198.5,75,196.52,75,194.41,75Zm2-1.66h4.34c2.12-.77,2.15-2.36,2-3.9a5.05,5.05,0,0,0-1.44-1.86c-1.62-.59-3.25-.23-4.88-.36Zm4.24-7.75c.22-.19.39-.46.63-.54.77-.27.9-.88.92-1.56s0-1.28,0-1.71a2.32,2.32,0,0,0-2.11-1.7,29.5,29.5,0,0,0-3.64,0v5.82a11.52,11.52,0,0,0,2.13,0A7.75,7.75,0,0,1,200.6,65.62Z"></path>
  <path d="M265.37,89.75h10.44v2.16h-7.13v5h6v2.46h-6c-.12,2.32,0,4.61-.07,6.85l-.36.36H265.7l-.33-.33Z"></path>
  <path d="M284.21,54.35l.33-.34h10.94v1.62h-9.35v7.72h8.18c.22.56,0,1.1.15,1.68h-8.3v8.32h9.3V75H284.21Z"></path>
  <path d="M236.8,89.75H240c-.66,1.79-1.62,3.43-2.38,5.16s-1.56,3.22-2.26,4.87a2.27,2.27,0,0,1-.3.39v6.42h-3c0-1.74,0-3.48,0-5.22a5.13,5.13,0,0,0-.44-1.75c-.67-1.86-1.76-3.51-2.43-5.36a33.86,33.86,0,0,0-2.1-4.11,1,1,0,0,1,0-.35,6,6,0,0,1,1.58-.08c.55,0,1.1,0,1.74,0l3.16,7.58C234.81,94.76,235.55,92.15,236.8,89.75Z"></path>
  <path d="M336.8,66.85c0,.55,0,1.1,0,1.66a3.86,3.86,0,0,1-.24,1.56c-.18.4-.14.92-.29,1.39a5.47,5.47,0,0,1-5.2,3.87,6.13,6.13,0,0,1-2.94-.59,5.13,5.13,0,0,1-2.68-3.38,11,11,0,0,1-.57-3.22c0-1.06,0-2.12,0-3.18a3.41,3.41,0,0,1,.24-1.56c.18-.4.12-.91.28-1.4a5.78,5.78,0,0,1,8-3.49,5.8,5.8,0,0,1,3.1,4,12.29,12.29,0,0,1,.33,2.09C336.75,65.37,336.8,66.11,336.8,66.85Zm-4,6.44a5.54,5.54,0,0,0,2-4.86c0-.69,0-1.39,0-2.08a11.51,11.51,0,0,0-.24-3.35,5.73,5.73,0,0,0-1-2.09,2.5,2.5,0,0,0-2.17-1.11c-.52-.67-1,0-1.57,0s-1,.38-1.48.75a6.62,6.62,0,0,0-1.29,1.95c.22.63-.33,1.25-.29,2s0,1.56,0,2.35c0,.37,0,.74,0,1.11a8.47,8.47,0,0,0,.55,3.37,3,3,0,0,0,1.56,1.85c.25.12.64.12.78.46A6.93,6.93,0,0,0,332.84,73.29Z"></path>
  <path d="M252.15,58.13h.94c.32,0,.64,0,.74-.26.41-.08.49.27.83.28a4.89,4.89,0,0,1,4.11,2.69,7.39,7.39,0,0,1,1,3.86c0,1.43,0,2.86,0,4.29a6.74,6.74,0,0,1-2.07,5A7.52,7.52,0,0,1,255.92,75a3.7,3.7,0,0,0-.44.29h-2.19a4.23,4.23,0,0,1-2.76-1,6.31,6.31,0,0,1-2.22-3.35c0-.11-.18-.18-.17-.35,0-1.71-.54-3.42-.25-5.13s.2-3.22,1.08-4.66a5.07,5.07,0,0,1,2.14-2.09C251.46,58.52,251.86,58.48,252.15,58.13Zm1.8,1.28a.89.89,0,0,1-.94.38,1.39,1.39,0,0,0-1.21.41,3.89,3.89,0,0,0-1.49,2.15,22.63,22.63,0,0,0-.49,2.83c-.07.91.05,1.85,0,2.76s.52,1.84.3,2.65a19.18,19.18,0,0,0,.89,1.86c.38.62,1.14.78,1.78,1.18,2.78,0,2.46.43,4.53-1.84,0-.76.57-1.36.55-2.12s0-1.66,0-2.5c0-.6,0-1.2,0-1.8a10.94,10.94,0,0,0-.24-2.66,4,4,0,0,0-2-2.68C255.06,59.74,254.39,60.08,254,59.41Z"></path>
  <path d="M299.86,70.1l.38.38c-.28,1.28.61,2,1.45,2.82a6.21,6.21,0,0,0,4.31,0,5,5,0,0,0,1.43-1.89v-.91a1.94,1.94,0,0,0-1.11-1.82A22,22,0,0,0,302.44,67a11.69,11.69,0,0,1-2.61-1.4c-.56-.35-.56-1.08-1-1.54-.13-.46.22-1-.37-1.45.51-.44.3-1.06.36-1.54a8.44,8.44,0,0,1,.81-1.41,4.18,4.18,0,0,1,3.22-1.56c.27,0,.53.07.76-.2a.48.48,0,0,1,.62,0c.27.29.58.23.89.22a3.07,3.07,0,0,1,2.23.94,4.11,4.11,0,0,1,1.65,4h-1.86a3.6,3.6,0,0,0-.56-2.19,1.8,1.8,0,0,0-1.56-1c-.51,0-.93-.63-1.37-.27s-1,.09-1.42.27c-1.16.71-1.75,1-1.47,4a7.22,7.22,0,0,0,3.71,2.08,13.52,13.52,0,0,1,2.37,1,5,5,0,0,1,2.21,2.25c.75,1.54.24,4.45-1.75,5.41a6.1,6.1,0,0,1-3,.81,10.87,10.87,0,0,1-2.66-.26c-1.54-.45-3-1.56-3.11-3.11-.46-.55-.22-1.2-.3-1.85Z"></path>
  <path d="M182.93,73.65a8.15,8.15,0,0,0,3.46-.42,3.66,3.66,0,0,1,.51-.53,4,4,0,0,0,1.38-3.3c.05-3.56,0-7.11,0-10.66v-.57h1.56l.38.38V68.94a3.55,3.55,0,0,1-.25,1.42c-.16.37-.12.83-.26,1.27A4,4,0,0,1,188,74.09a4.58,4.58,0,0,0-.67.65c-.24.07-.45,0-.68.11a3.27,3.27,0,0,1-2.16.46,10.3,10.3,0,0,1-2.25-.23,5.38,5.38,0,0,1-3.64-3.61,5.62,5.62,0,0,1-.29-2c0-3.6,0-7.2,0-10.8,0-.17-.08-.37.1-.55h1.83v2.47c0,2.91,0,5.81,0,8.72a7,7,0,0,0,.87,3c.26.6.93.73,1.45,1C182.67,73.44,182.77,73.53,182.93,73.65Z"></path>
  <path d="M368.77,58.17h1.51c1.86,5.56,3.72,11.15,5.61,16.81H374c-.65-1.25-.81-2.79-1.5-4.09h-6.22c-.69,1.29-.85,2.83-1.53,4.11h-1.88q2.79-8.3,5.57-16.5C368.49,58.38,368.64,58.3,368.77,58.17Zm3.34,11a34.94,34.94,0,0,1-1.46-4c-.46-1.33-.7-2.73-1.29-4.12-.85,2.78-1.87,5.38-2.54,8.11Z"></path>
  <path d="M341.21,89.76v2.13h-4.37v14.68h-3V92h-4.16c-.09-.75,0-1.46-.05-2.22Z"></path>
  <path d="M211,89.77v2.12h-4.23a.72.72,0,0,0-.13.14.28.28,0,0,0,0,.12c0,4.79,0,9.58,0,14.42h-3l0,0a.21.21,0,0,1-.05-.12V91.94h-4.13V89.77Z"></path>
  <path d="M150.67,58.16h9.6v1.61H152.6V65.6h6.58v1.63h-6.57c-.11,2,0,4-.06,6.11h7.31l.41.41V75h-9.6Z"></path>
  <path d="M166.14,69v6h-1.81c-.21-1.17-.27-9.74-.11-16.86a50.29,50.29,0,0,1,5.89,0c2.8.32,4.44,1.93,4.62,5.06a5.76,5.76,0,0,1-.82,3.4,4.49,4.49,0,0,1-2.77,2C169.54,69.15,167.9,68.82,166.14,69Zm0-1.69a32.56,32.56,0,0,0,3.44,0,3,3,0,0,0,2.77-1.61,5.18,5.18,0,0,0,.36-3.13,2.72,2.72,0,0,0-1-1.93,4.16,4.16,0,0,0-2.3-.79h-3.29Z"></path>
  <path d="M318.81,106.57V89.77h2.94l0,0a.26.26,0,0,1,0,.12v14.19h6.07v2.45Z"></path>
  <path d="M232.29,57.79a1.92,1.92,0,0,0,1.49.32,4.9,4.9,0,0,1,3.83,5.51H236l-.36-.4a3,3,0,0,0-.77-2.62c-.61-.69-1.62-.73-2.45-1.05-.27-.12-.38.25-.57.23a2.57,2.57,0,0,0-2.16,1.13,5.93,5.93,0,0,0-1,2.08,7.71,7.71,0,0,0-.24,2.52c0,1.2-.06,2.4,0,3.6A5.81,5.81,0,0,0,230.15,73a2.07,2.07,0,0,0,1.66.68c.6,0,1.2,0,1.68,0a4.44,4.44,0,0,0,2.2-2.2V69.81h1.9a4.49,4.49,0,0,1-.44,2.78c-1,1.58-2.22,2.76-4.24,2.72-.69,0-1.39,0-2.08,0-.2-.33-.59-.4-.88-.53-1.84-.78-2.6-2.33-3.15-4.09a10,10,0,0,1-.27-2.93c0-1.15,0-2.3,0-3.45a7.7,7.7,0,0,1,1.16-3.8,5,5,0,0,1,2.42-2.08,1.21,1.21,0,0,0,.36-.24C231.1,58,231.75,58.42,232.29,57.79Z"></path>
  <path d="M264,58.16h9.6v1.55l0,0a.28.28,0,0,1-.12,0h-7.5v6s0,0,.05,0a.18.18,0,0,0,.12,0h6.39v1.62h-6.56V75H264Z"></path>
  <path d="M158.05,106.59h-3V89.78a5.42,5.42,0,0,1,1.41-.06c.5,0,1,0,1.54,0Z"></path>
  <path d="M182.16,106.59h-3V89.76l1.42,0c.5,0,1,0,1.54,0Z"></path>
  <path d="M316.06,59.79h-4.43V58.2h10.72v1.56H318V75h-1.94Z"></path>
  <path d="M208.57,58.16h1.89V73.37h6.6V75s0,0,0,0a.28.28,0,0,1-.12,0h-8.33Z"></path>
  <path d="M222.33,75h-1.85V58.49l.41-.33h1.44Z"></path>
  <path d="M359.48,75h-1.86V58.49l.4-.33h1.46Z"></path>
  <path class="cls-1" d="M29.51,111.78v2H26.27c-.15-.58.19-1.25-.4-1.65.52-.61.69.32,1.1,0l.17-.48h1.49l.17.46C29.08,112.3,29.25,112,29.51,111.78Z"></path>
  <path class="cls-1" d="M26.32,116.55c-.27-.27-.54-.48-.33-.88a2.43,2.43,0,0,1,1.44-1,2.73,2.73,0,0,1,2.38,1,.82.82,0,0,1-.38.93Z"></path>
  <path class="cls-1" d="M27.57,76.42h.68c.36.16.44.52.6.83l.64-.61v2.24H26.28c-.18-.66.15-1.44-.44-2.11l.56-.08.13.39.77-.77Z"></path>
  <path class="cls-1" d="M26.33,81.64c-.51-.38-.4-.83-.33-1.3a3.29,3.29,0,0,1,3.46-.29c.15.25,0,.61.35.63.08.43-.38.57-.3,1Z"></path>
  <path class="cls-1" d="M29.32,43.94a4.18,4.18,0,0,0-3,.09c-.21-.69.15-1.47-.39-2,.41-.55.63.18,1,.06s.18-.25.18-.44c.39-.26.82,0,1.16-.14a1.06,1.06,0,0,1,.53,1.13l.81-.81C29.47,42.52,29.74,43.24,29.32,43.94Z"></path>
  <path class="cls-1" d="M27.84,44.41c.38.51.8.42,1.31.43l.72.9c.12.45-.43.68-.78,1.07a2.29,2.29,0,0,0-2.37,0c-.27,0-.31-.53-.65-.26a1.88,1.88,0,0,1-.11-1l.64-.65C26.91,44.68,27.48,45.08,27.84,44.41Z"></path>
</svg>
