<svg id="Layer_1" data-name="Layer 1" xmlns="http://www.w3.org/2000/svg" viewBox="0 0 105.36 35.26"><title>flanders</title><path d="M55.12,18c-.33,0-.9,0-1.7,0v6.64c.68.07,1.24.1,1.67.1A5.32,5.32,0,0,0,58.38,24a3.24,3.24,0,0,0,1-2.69,3.07,3.07,0,0,0-.95-2.5A5.35,5.35,0,0,0,55.12,18Z"/><path d="M58.37,12.7c0-1.55-1-2.32-3-2.32-.53,0-1.18,0-1.94.07v4.81c.52,0,1.06.06,1.64.06C57.27,15.32,58.37,14.44,58.37,12.7Z"/><path d="M105.36,0H0V35.25H105.36L83.42,17.62ZM21.54,28H20.16L10.89,15.24V27.7H7.63V7.58H9.26l9,12.13V7.58h3.26Zm15.94-.27h-12V7.58h3.4V24.52h8.63Zm9.1-6.54h-6.9V17.93h6.9ZM61,26.07a7.72,7.72,0,0,1-5.08,1.62H50V7.59c2.57-.13,4.37-.19,5.41-.19a7.23,7.23,0,0,1,4.65,1.34,4.61,4.61,0,0,1,1.67,3.82,4.21,4.21,0,0,1-2.4,3.77,5.18,5.18,0,0,1,3.56,5.38A5.3,5.3,0,0,1,61,26.07ZM78.11,10.75h-8.8v4.7h6.31v3H69.31v6H78v3.17h-12V7.58H78.11Z"/></svg>