<svg id="Layer_1" data-name="Layer 1" xmlns="http://www.w3.org/2000/svg" viewBox="0 0 105.36 35.26"><title>wallonia</title><path d="M54.43,18c-.33,0-.9,0-1.71,0v6.64c.69.07,1.25.1,1.67.1a5.35,5.35,0,0,0,3.3-.81,3.24,3.24,0,0,0,1-2.69,3.07,3.07,0,0,0-1-2.5A5.37,5.37,0,0,0,54.43,18Z"/><path d="M31.21,11.19a7.07,7.07,0,0,0-3.33-.59,7.76,7.76,0,0,0-1.15.08v5.59c.63.05,1.11.08,1.44.08a5.93,5.93,0,0,0,3.11-.63,2.72,2.72,0,0,0,1-2.46A2.16,2.16,0,0,0,31.21,11.19Z"/><path d="M57.68,12.7c0-1.55-1-2.32-3-2.32-.53,0-1.18,0-2,.07v4.81c.53,0,1.07.06,1.65.06C56.58,15.32,57.68,14.44,57.68,12.7Z"/><path d="M105.36,0H0V35.25H105.36L83.42,17.62ZM20.21,10.75H11v4.71h6.71v3H11v9.2H7.63V7.58H20.21ZM34,27.69l-5.1-8.31c-.51,0-1.23,0-2.15-.09v8.4H23.21V7.58l2.21-.11c1.27-.07,2.3-.1,3.09-.1q7.27,0,7.27,5.93a5.62,5.62,0,0,1-1,3.25,5.52,5.52,0,0,1-2.53,2.08l5.65,9.06Zm11.91-6.54H39V17.93h6.9Zm14.37,4.92a7.74,7.74,0,0,1-5.08,1.62H49.33V7.59c2.58-.13,4.38-.19,5.42-.19A7.23,7.23,0,0,1,59.4,8.74a4.61,4.61,0,0,1,1.67,3.82,4.21,4.21,0,0,1-2.4,3.77,5.2,5.2,0,0,1,3.56,5.38A5.33,5.33,0,0,1,60.26,26.07ZM77.42,10.75h-8.8v4.71h6.31v3H68.62v6h8.66v3.17h-12V7.58H77.42Z"/></svg>