<svg id="Layer_1" data-name="Layer 1" xmlns="http://www.w3.org/2000/svg" viewBox="0 0 792 311.93"><title>header</title><path d="M546,117.73c-10.49,0-17.74,13.35-17.74,42.35,0,28.43,6.87,42,17.93,42,11.26,0,17.36-14.11,17.36-42.35C563.56,132.23,557.65,117.73,546,117.73Z"/><path d="M254.24,117.73c-10.5,0-17.74,13.35-17.74,42.35,0,28.43,6.86,42,17.93,42,11.25,0,17.36-14.11,17.36-42.35C271.79,132.23,265.87,117.73,254.24,117.73Z"/><path d="M400.13,117.73c-10.5,0-17.75,13.35-17.75,42.35,0,28.43,6.87,42,17.94,42,11.25,0,17.36-14.11,17.36-42.35C417.68,132.23,411.76,117.73,400.13,117.73Z"/><path d="M0,0V311.93H792V0ZM128.38,221.89h-28V123.64H100L76.3,134.9l-4.77-21.75,33-15.26h23.85ZM253.86,224c-32.06,0-46.17-28.8-46.36-63.91,0-36.05,15.07-64.29,47.12-64.29,33,0,46.17,29.57,46.17,63.53C300.79,197.47,285.33,224,253.86,224Zm145.88,0c-32.05,0-46.16-28.8-46.35-63.91,0-36.05,15.07-64.29,47.12-64.29,33,0,46.16,29.57,46.16,63.53C446.67,197.47,431.22,224,399.74,224Zm145.89,0c-32,0-46.17-28.8-46.36-63.91,0-36.05,15.07-64.29,47.12-64.29,33,0,46.17,29.57,46.17,63.53C592.56,197.47,577.11,224,545.63,224Zm166.3-2.1h-28V123.64h-.38L659.85,134.9l-4.77-21.75,33-15.26h23.85Z"/></svg>