<svg id="Layer_1" data-name="Layer 1" xmlns="http://www.w3.org/2000/svg" viewBox="0 0 320.79 64.22"><defs><style>.cls-1{fill:#010101;}</style></defs><title>header-small</title><path class="cls-1" d="M14.43,14h-.19L2.39,19.59,0,8.7,16.53,1.05h12V63.17h-14Z"/><path class="cls-1" d="M114.84,31.82c0,19.12-7.74,32.4-23.51,32.4-16,0-23.13-14.43-23.22-32C68.11,14.14,75.66,0,91.71,0,108.25,0,114.84,14.81,114.84,31.82Zm-32.21.39c0,14.23,3.44,21,9,21s8.69-7.07,8.69-21.22c0-13.76-3-21-8.79-21C86.27,11,82.63,17.68,82.63,32.21Z"/><path class="cls-1" d="M187.92,31.82c0,19.12-7.74,32.4-23.51,32.4-16.06,0-23.13-14.43-23.22-32,0-18.07,7.55-32.21,23.6-32.21C181.32,0,187.92,14.81,187.92,31.82Zm-32.21.39c0,14.23,3.44,21,9,21s8.69-7.07,8.69-21.22c0-13.76-3-21-8.79-21C159.34,11,155.71,17.68,155.71,32.21Z"/><path class="cls-1" d="M261,31.82c0,19.12-7.74,32.4-23.51,32.4-16.06,0-23.13-14.43-23.22-32,0-18.07,7.54-32.21,23.6-32.21C254.4,0,261,14.81,261,31.82Zm-32.21.39c0,14.23,3.44,21,9,21s8.7-7.07,8.7-21.22c0-13.76-3-21-8.79-21C232.42,11,228.79,17.68,228.79,32.21Z"/><path class="cls-1" d="M306.74,14h-.19L294.7,19.59,292.31,8.7l16.54-7.65h11.94V63.17H306.74Z"/></svg>