<?xml version="1.0" encoding="utf-8"?>
<!-- Generator: Adobe Illustrator 24.0.1, SVG Export Plug-In . SVG Version: 6.00 Build 0)  -->
<svg version="1.1" id="Layer_1" xmlns="http://www.w3.org/2000/svg" xmlns:xlink="http://www.w3.org/1999/xlink" x="0px" y="0px"
	 viewBox="0 0 792 311.9" style="enable-background:new 0 0 792 311.9;" xml:space="preserve">
<style type="text/css">
	.st0{fill:#FF0000;}
</style>
<g style="opacity: 0;" class="black-and-white-header">
  <path d="M546,117.7c-10.5,0-17.7,13.3-17.7,42.3c0,28.4,6.9,42,17.9,42c11.3,0,17.4-14.1,17.4-42.3
    C563.6,132.2,557.7,117.7,546,117.7z"/>
  <path d="M254.2,117.7c-10.5,0-17.7,13.3-17.7,42.3c0,28.4,6.9,42,17.9,42c11.2,0,17.4-14.1,17.4-42.3
    C271.8,132.2,265.9,117.7,254.2,117.7z"/>
  <path d="M400.1,117.7c-10.5,0-17.8,13.3-17.8,42.3c0,28.4,6.9,42,17.9,42c11.2,0,17.4-14.1,17.4-42.3
    C417.7,132.2,411.8,117.7,400.1,117.7z"/>
  <path d="M0,0v311.9h792V0H0z M128.4,221.9h-28v-98.2H100l-23.7,11.3l-4.8-21.8l33-15.3h23.8V221.9z M253.9,224
    c-32.1,0-46.2-28.8-46.4-63.9c0-36.1,15.1-64.3,47.1-64.3c33,0,46.2,29.6,46.2,63.5C300.8,197.5,285.3,224,253.9,224z M399.7,224
    c-32,0-46.2-28.8-46.4-63.9c0-36.1,15.1-64.3,47.1-64.3c33,0,46.2,29.6,46.2,63.5C446.7,197.5,431.2,224,399.7,224z M545.6,224
    c-32,0-46.2-28.8-46.4-63.9c0-36.1,15.1-64.3,47.1-64.3c33,0,46.2,29.6,46.2,63.5C592.6,197.5,577.1,224,545.6,224z M711.9,221.9
    h-28v-98.3h-0.4l-23.7,11.3l-4.8-21.8l33-15.3h23.8L711.9,221.9z"/>
</g>
<g class="red-numerals">
  <path class="st0" d="M100.3,123.7H100l-23.7,11.2l-4.8-21.7l33-15.3h23.8v124h-28L100.3,123.7z"/>
  <path class="st0" d="M683.9,123.7h-0.4l-23.7,11.2l-4.8-21.7l33-15.3h23.9v124h-28L683.9,123.7z"/>
  <path class="st0" d="M446.7,159.3c0,38.1-15.4,64.7-46.9,64.7c-32,0-46.2-28.8-46.4-63.9c0-36.1,15.1-64.3,47.1-64.3
    C433.5,95.8,446.7,125.4,446.7,159.3z M382.4,160.1c0,28.4,6.9,42,17.9,42c11.3,0,17.4-14.1,17.4-42.3c0-27.5-5.9-42-17.5-42
    C389.6,117.7,382.4,131.1,382.4,160.1z"/>
  <path class="st0" d="M300.8,159.3c0,38.1-15.4,64.7-46.9,64.7c-32.1,0-46.2-28.8-46.4-63.9c0-36.1,15.1-64.3,47.1-64.3
    C287.6,95.8,300.8,125.4,300.8,159.3z M236.5,160.1c0,28.4,6.9,42,17.9,42c11.3,0,17.4-14.1,17.4-42.3c0-27.5-5.9-42-17.5-42
    C243.7,117.7,236.5,131.1,236.5,160.1z"/>
  <path class="st0" d="M592.5,159.3c0,38.2-15.4,64.7-46.9,64.7c-32,0-46.2-28.8-46.4-63.9c0-36.1,15.1-64.3,47.1-64.3
    C579.4,95.8,592.5,125.4,592.5,159.3z M528.3,160.1c0,28.4,6.9,42,17.9,42c11.3,0,17.4-14.1,17.4-42.4c0-27.5-5.9-42-17.5-42
    C535.5,117.7,528.3,131.1,528.3,160.1z"/>
  </g>
  <g class="numeral-box first-1" transform="translate(53.5, 95.65)">
    <rect class="box-mask" x="0" y="0" width="93" height="128" style="fill: #0000ff; opacity:.5;" />
    <g class="spinning-numbers">
      <path class="numeral-1" style="fill: #00ff00;" d="M47,27.85h-.39L23,39.11,18.22,17.36l33-15.26H75.07v124H47Z"/>
      <path transform="translate(0, 150)" class="numeral-0" style="fill: #00ff00;" d="M93.29,63.53c0,38.15-15.45,64.67-46.93,64.67C14.31,128.2.19,99.39,0,64.29,0,28.23,15.07,0,47.12,0,80.13,0,93.29,29.57,93.29,63.53ZM29,64.29c0,28.43,6.87,42,17.93,42,11.26,0,17.36-14.11,17.36-42.35,0-27.47-5.91-42-17.55-42C36.25,21.94,29,35.29,29,64.29Z"/>
    </g>
  </g>
  <g class="numeral-box first-0" transform="translate(207.5, 95.65)">
    <rect class="box-mask" x="0" y="0" width="93" height="128" style="fill: #0000ff; opacity:.5;" />
    <g class="spinning-numbers">
      <path class="numeral-0" style="fill: #00ff00;" d="M93.29,63.53c0,38.15-15.45,64.67-46.93,64.67C14.31,128.2.19,99.39,0,64.29,0,28.23,15.07,0,47.12,0,80.13,0,93.29,29.57,93.29,63.53ZM29,64.29c0,28.43,6.87,42,17.93,42,11.26,0,17.36-14.11,17.36-42.35,0-27.47-5.91-42-17.55-42C36.25,21.94,29,35.29,29,64.29Z"/>
    </g>
  </g>
  <g class="numeral-box second-0" transform="translate(353.5, 95.65)">
    <rect class="box-mask" x="0" y="0" width="93" height="128" style="fill: #0000ff; opacity:.5;" />
    <g class="spinning-numbers">
      <path class="numeral-0" style="fill: #00ff00;" d="M93.29,63.53c0,38.15-15.45,64.67-46.93,64.67C14.31,128.2.19,99.39,0,64.29,0,28.23,15.07,0,47.12,0,80.13,0,93.29,29.57,93.29,63.53ZM29,64.29c0,28.43,6.87,42,17.93,42,11.26,0,17.36-14.11,17.36-42.35,0-27.47-5.91-42-17.55-42C36.25,21.94,29,35.29,29,64.29Z"/>
    </g>
  </g>
  <g class="numeral-box third-0" transform="translate(499.5, 95.65)">
    <rect class="box-mask" x="0" y="0" width="93" height="128" style="fill: #0000ff; opacity:.5;" />
    <g class="spinning-numbers">
      <path class="numeral-0" style="fill: #00ff00;" d="M93.29,63.53c0,38.15-15.45,64.67-46.93,64.67C14.31,128.2.19,99.39,0,64.29,0,28.23,15.07,0,47.12,0,80.13,0,93.29,29.57,93.29,63.53ZM29,64.29c0,28.43,6.87,42,17.93,42,11.26,0,17.36-14.11,17.36-42.35,0-27.47-5.91-42-17.55-42C36.25,21.94,29,35.29,29,64.29Z"/>
    </g>
  </g>
  <g class="numeral-box second-1" transform="translate(636.5, 95.65)">
    <rect class="box-mask" x="0" y="0" width="93" height="128" style="fill: #0000ff; opacity:.5;" />
    <g class="spinning-numbers">
      <path class="numeral-1" style="fill: #00ff00;" d="M47,27.85h-.39L23,39.11,18.22,17.36l33-15.26H75.07v124H47Z"/>
    </g>
  </g>
</svg>
