<svg class="large-header" xmlns="http://www.w3.org/2000/svg" xmlns:xlink="http://www.w3.org/1999/xlink" x="0px" y="0px"
	 viewBox="0 0 792 311.9" style="enable-background:new 0 0 792 311.9;" xml:space="preserve">
  <defs>
    <clipPath id="numerals-mask">
      <rect x="53.5" y="95.65" width="676" height="128"/>
    </clipPath>
  </defs>
  <g class="black-background">
    <rect x="0" y="0" width="792" height="311.9"/>
  </g>
  <g style="opacity: 0;" class="black-and-white-header">
    <path d="M546,117.7c-10.5,0-17.7,13.3-17.7,42.3c0,28.4,6.9,42,17.9,42c11.3,0,17.4-14.1,17.4-42.3
      C563.6,132.2,557.7,117.7,546,117.7z"/>
    <path d="M254.2,117.7c-10.5,0-17.7,13.3-17.7,42.3c0,28.4,6.9,42,17.9,42c11.2,0,17.4-14.1,17.4-42.3
      C271.8,132.2,265.9,117.7,254.2,117.7z"/>
    <path d="M400.1,117.7c-10.5,0-17.8,13.3-17.8,42.3c0,28.4,6.9,42,17.9,42c11.2,0,17.4-14.1,17.4-42.3
      C417.7,132.2,411.8,117.7,400.1,117.7z"/>
    <path d="M0,0v311.9h792V0H0z M128.4,221.9h-28v-98.2H100l-23.7,11.3l-4.8-21.8l33-15.3h23.8V221.9z M253.9,224
      c-32.1,0-46.2-28.8-46.4-63.9c0-36.1,15.1-64.3,47.1-64.3c33,0,46.2,29.6,46.2,63.5C300.8,197.5,285.3,224,253.9,224z M399.7,224
      c-32,0-46.2-28.8-46.4-63.9c0-36.1,15.1-64.3,47.1-64.3c33,0,46.2,29.6,46.2,63.5C446.7,197.5,431.2,224,399.7,224z M545.6,224
      c-32,0-46.2-28.8-46.4-63.9c0-36.1,15.1-64.3,47.1-64.3c33,0,46.2,29.6,46.2,63.5C592.6,197.5,577.1,224,545.6,224z M711.9,221.9
      h-28v-98.3h-0.4l-23.7,11.3l-4.8-21.8l33-15.3h23.8L711.9,221.9z"/>
  </g>
</svg>
