<svg id="Layer_1" data-name="Layer 1" xmlns="http://www.w3.org/2000/svg" viewBox="0 0 105.36 35.26"><title>malta</title><path d="M105.36,0H0V35.25H105.36L83.42,17.62ZM22.16,27.7l-2-10.84L16.33,28H15.11l-3.84-11.1L9.21,27.7H5.93L9.78,7.58h1.8l4.13,13.54L19.76,7.58h1.78l3.9,20.12Zm13.14,0H31.91V10.75H25.83V7.58H41.65v3.17H35.3Zm12.86-6.54h-6.9V17.93h6.9Zm18,6.55-2-10.84L60.3,28H59.09l-3.85-11.1L53.18,27.7H49.91L53.75,7.58h1.8l4.14,13.54,4-13.54h1.79l3.9,20.12Zm13.15,0H75.89V10.75H69.81V7.58H85.63v3.17H79.28Z"/></svg>