<svg id="Layer_1" data-name="Layer 1" xmlns="http://www.w3.org/2000/svg" viewBox="0 0 842.13 256.41"><defs><style>.cls-1,.cls-2{fill:#1d1d1b;}.cls-2{font-size:49.82px;font-family:MyriadPro-Regular, Myriad Pro;}</style></defs><title>Artboard 1</title><path class="cls-1" d="M118.36,45.55A179.24,179.24,0,0,0,91.45,26.43c-4.15-2.38-8.62-5-13.54-5.22C72.48,21,68,24.06,64,27.32,50.29,38.42,40.9,54.85,37.43,72.08c-3.38,16.74-2.5,38.6,8.71,52.48,6.13,7.6,15.42,10,24.75,10.89,10.93,1,22,1,33,1.46,22.36,1.05,44.8,2.75,66.62,8.05a160.31,160.31,0,0,1,31.17,10.63c1.9.9,4.08,1.74,5.19,3.6,1.24,2.09.95,5.17.8,7.53-.38,5.9-2.34,11.72-4.75,17.09-7.28,16.19-18.54,35.68-35.31,43.48-20.37,9.49-42-5.76-57.3-18.2-9.07-7.38-16.63-15.78-20.51-27-4.17-12.06-6-25.1-6.53-37.81-.45-10.81-2.29-24.67,9.17-30.14,10.57-5,24-5.81,35.54-6.24l-5.79-7.59a143.09,143.09,0,0,0,8.51,92.6l8.21-8.21c-8.47-4.11-17.55-8.35-27.21-7.53-9.86.82-19.09,6.48-27.68,11q-13.73,7.2-26.9,15.38C50.29,207.75,38,213,36.71,221.87l7.38-4.19a138.66,138.66,0,0,0-38-6.45l5.78,7.59L26,178l-10,2.65c6,6.78,12,13.64,18.15,20.34,5.07,5.53,11.59,8.69,19.12,6.2C60.46,204.81,66,198.81,70.51,193a85.52,85.52,0,0,0,12.16-20.79c6.51-15.91,7.66-33.46,6.8-50.46C88.55,103.89,86,86,83.5,68.31q-4.6-32.19-11.28-64c-1-4.68-6.89-5.46-10-2.65-8.11,7.25-10.33,19.29-7,29.44C59,42.36,68.57,50.55,78.82,55.9a91.18,91.18,0,0,0,37.93,10.18c10.66.49,25.3-.16,30.58-11.31L137,48.72c-9.31,20.81-4.46,44.68,8.4,63C159.2,131.31,180.15,144,200.44,156l-2.15-8.21c-5,9.34-14.81,16.46-22.37,23.66l-26.4,25.16L97.45,246.23c-5.6,5.34,2.9,13.81,8.49,8.48l53.5-51,26.39-25.15c7.94-7.57,17.57-14.91,22.82-24.73a6.11,6.11,0,0,0-2.15-8.21c-17.6-10.42-36-21.14-48.84-37.43-11.48-14.53-18.26-35.7-10.33-53.43,3.1-6.94-7-13.09-10.36-6.05S121.4,54.41,115,54a76.72,76.72,0,0,1-28.69-7.71c-7.3-3.62-14.63-8.5-18.47-16-3.43-6.65-2.91-15.07,2.83-20.2l-10-2.65q6.43,30.87,11,62.08c2.88,19.91,5.89,40.16,6.07,60.31.17,18.91-3.35,37.61-14.61,53.2-3.63,5-12.26,17.29-19,11-7.08-6.58-13.17-14.67-19.61-21.89-3.2-3.59-8.64-1.34-10,2.65L.29,215.63c-1.33,3.82,2.12,7.49,5.79,7.6a126.52,126.52,0,0,1,34.82,6c2.8.89,7-1.06,7.38-4.19s6.07-5.57,8.51-7.15q4.74-3,9.55-6,10.81-6.58,22-12.53c6.74-3.57,14-8.19,21.49-9.87,8-1.8,15.91,2.13,23,5.54,5.64,2.73,10.67-2.7,8.21-8.21a129.6,129.6,0,0,1-7.3-83.35c.9-3.65-1.78-7.75-5.78-7.6-11.4.42-23.35,1.59-34.29,5-9,2.79-17.19,7.9-20.49,17.13-3.76,10.49-2.37,23.87-1.35,34.75,1.1,11.74,3,23.84,7.24,34.89,7.82,20.34,26.52,35.15,45.06,45.58,18.82,10.6,40.2,12.68,58.06-.94,15.73-12,27.85-31.94,34.34-50.41,3.29-9.37,6.23-23.89-1.58-31.88-3.28-3.37-7.88-5.14-12.12-7-5.36-2.29-10.82-4.35-16.38-6.11-22.32-7.07-45.83-9.8-69.11-11.29-11.66-.75-23.33-1.17-35-1.62-9.54-.37-22.06.47-28-8.56C48.64,107,47.37,95,47.82,85a68.37,68.37,0,0,1,8.39-29.7,64.05,64.05,0,0,1,8.52-12.14c2.82-3.14,7.92-9.45,12.41-9.87,2.78-.26,5.9,2.16,8.25,3.5q4.19,2.4,8.21,5A159.71,159.71,0,0,1,109.87,54c5.85,5,14.38-3.47,8.49-8.48Z"/><text class="cls-2" transform="translate(210.64 119.65)">Arbitrary Cultural organization</text></svg>